<?xml version="1.0" encoding="UTF-8"?>
<svg version="1.1" xmlns="http://www.w3.org/2000/svg" width="800" height="800">
<path d="M0 0 C264 0 528 0 800 0 C800 264 800 528 800 800 C536 800 272 800 0 800 C0 536 0 272 0 0 Z " fill="#FEFEFE" transform="translate(0,0)"/>
<path d="M0 0 C0 16.83 0 33.66 0 51 C-4.99703294 49.00118682 -7.83112634 46.80982315 -11.81640625 43.36328125 C-13.84143482 41.8462047 -13.84143482 41.8462047 -15.91015625 41.93359375 C-19.13887747 43.58114682 -21.41486122 46.14733429 -23.875 48.75 C-26.83422706 51.83788911 -29.7556001 54.86782273 -33.0703125 57.578125 C-35.9073847 59.92343802 -38.4279261 62.36811042 -41 65 C-42.41528117 66.41805081 -43.83210519 67.83456254 -45.25 69.25 C-46.0234375 70.0234375 -46.796875 70.796875 -47.59375 71.59375 C-54.75 78.75 -54.75 78.75 -57.00292969 81.00097656 C-58.5744364 82.5740202 -60.13991152 84.15308969 -61.703125 85.734375 C-64.3191966 88.31485379 -67.02834965 90.78255325 -69.75 93.25 C-76.2049223 99.13214682 -82.34917867 105.30510489 -88.43847656 111.56347656 C-89.13295898 112.26956055 -89.82744141 112.97564453 -90.54296875 113.703125 C-91.4714563 114.65687012 -91.4714563 114.65687012 -92.41870117 115.62988281 C-94 117 -94 117 -96 117 C-96 117.66 -96 118.32 -96 119 C-97.46875 120.4453125 -97.46875 120.4453125 -99.5 122.125 C-103.3499234 125.37893881 -106.86064335 128.84772718 -110.3359375 132.49609375 C-112 134 -112 134 -114 134 C-114 134.66 -114 135.32 -114 136 C-115.5390625 137.515625 -115.5390625 137.515625 -117.625 139.25 C-120.34047759 141.54660073 -122.91262264 143.87150775 -125.375 146.4375 C-128 149 -128 149 -130 149 C-130.226875 149.556875 -130.45375 150.11375 -130.6875 150.6875 C-133.62482766 155.86279159 -138.38372246 159.07583341 -143.08203125 162.53125 C-146.64391766 165.25888603 -149.50870335 168.38919876 -152.3125 171.875 C-154.24436619 174.24074127 -156.30622493 176.19487452 -158.63671875 178.16796875 C-163.13369623 182.05841056 -167.32226564 186.20947809 -171.5 190.4375 C-172.22703125 191.16904297 -172.9540625 191.90058594 -173.703125 192.65429688 C-175.47109499 194.43389824 -177.23666378 196.21580918 -179 198 C-179 194.21684503 -178.12205431 193.74179954 -175.5625 191.0625 C-171.24876201 186.40274025 -167.57495094 181.46086359 -163.8828125 176.30859375 C-163.26148438 175.54675781 -162.64015625 174.78492188 -162 174 C-161.34 174 -160.68 174 -160 174 C-159.75507813 173.44570313 -159.51015625 172.89140625 -159.2578125 172.3203125 C-157.74796208 169.53506049 -155.90832867 167.30507573 -153.875 164.875 C-152.72491711 163.49571909 -151.57814268 162.11310857 -150.46777344 160.70166016 C-149 159 -149 159 -146.94628906 157.21630859 C-140.22131276 150.64587771 -140.09766706 144.09368991 -139.95046997 135.18051147 C-139.94126696 132.07804497 -139.96965134 128.97730731 -140 125.875 C-139.99189919 123.75258727 -139.98021378 121.63018503 -139.96484375 119.5078125 C-139.92848292 114.33649441 -139.96593756 109.17323377 -140 104 C-147.92 104 -155.84 104 -164 104 C-164 107.3 -164 110.6 -164 114 C-164.17836759 118.01327088 -164.80626624 118.79242811 -167.625 121.8125 C-170.00323275 123.58208551 -171.23886278 124.05052867 -174.25 124.6875 C-180.75389612 123.49511905 -185.7690378 120.74342085 -189.97265625 115.57421875 C-193.98429992 109.02091904 -195.40763 102.6164786 -194 95 C-191.58788869 90.36286634 -189.07877932 86.69292644 -184 85 C-182.54218278 84.91369074 -181.08072526 84.88229019 -179.62036133 84.88647461 C-178.73967484 84.88655014 -177.85898834 84.88662567 -176.95161438 84.88670349 C-176.00465195 84.89186478 -175.05768951 84.89702606 -174.08203125 84.90234375 C-173.10965012 84.9037587 -172.13726898 84.90517365 -171.13542175 84.90663147 C-168.02774996 84.91223183 -164.92015004 84.92478438 -161.8125 84.9375 C-159.70638125 84.94251495 -157.60026137 84.94707787 -155.49414062 84.95117188 C-150.32937707 84.96135075 -145.16476906 84.98092617 -140 85 C-140 75.76 -140 66.52 -140 57 C-161.78 57 -183.56 57 -206 57 C-206 89.01 -206 121.02 -206 154 C-213.59 154 -221.18 154 -229 154 C-230 153 -230 153 -230.11352539 150.86694336 C-230.10828857 149.95050049 -230.10305176 149.03405762 -230.09765625 148.08984375 C-230.09443359 147.10048828 -230.09121094 146.11113281 -230.08789062 145.09179688 C-230.07532227 143.53041992 -230.07532227 143.53041992 -230.0625 141.9375 C-230.05798828 140.89271484 -230.05347656 139.84792969 -230.04882812 138.77148438 C-230.03699913 136.1809334 -230.02051689 133.59049441 -230 131 C-231.46373047 131.74056641 -231.46373047 131.74056641 -232.95703125 132.49609375 C-234.24213405 133.14333531 -235.52729325 133.79046488 -236.8125 134.4375 C-237.45509766 134.76298828 -238.09769531 135.08847656 -238.75976562 135.42382812 C-247.79278335 139.96373859 -259.37089021 140.84820961 -269.1875 137.75 C-272.78978369 136.26059424 -275.91518347 134.39930174 -279 132 C-279.51433594 131.60296875 -280.02867187 131.2059375 -280.55859375 130.796875 C-286.02119844 126.05626046 -288.24337258 119.66329553 -289.3828125 112.640625 C-289.70433634 106.59597688 -287.88036118 101.27143025 -285 96 C-282.3125 93.0625 -282.3125 93.0625 -280 91 C-279.67 90.01 -279.34 89.02 -279 88 C-280.051875 87.7215625 -280.051875 87.7215625 -281.125 87.4375 C-287.50758555 84.24620723 -290.9514695 78.29959177 -293.296875 71.73046875 C-295.66615832 62.52975186 -294.02316666 55.71124493 -289.703125 47.3984375 C-287.94653144 44.92470254 -286.80753367 44.03756679 -284 43 C-284 42.34 -284 41.68 -284 41 C-276.2418653 35.18139898 -267.43151937 34.78403157 -258 36 C-254.21113896 37.35947475 -250.86591365 39.13408635 -248 42 C-247.91273777 43.78071246 -247.89300959 45.5648314 -247.90234375 47.34765625 C-247.90556641 48.42724609 -247.90878906 49.50683594 -247.91210938 50.61914062 C-247.92467773 52.32360352 -247.92467773 52.32360352 -247.9375 54.0625 C-247.94201172 55.20267578 -247.94652344 56.34285156 -247.95117188 57.51757812 C-247.96300253 60.34510351 -247.9794859 63.1725264 -248 66 C-248.47050781 65.59007812 -248.94101563 65.18015625 -249.42578125 64.7578125 C-250.04839844 64.21898437 -250.67101562 63.68015625 -251.3125 63.125 C-251.92738281 62.59132813 -252.54226562 62.05765625 -253.17578125 61.5078125 C-257.32052487 58.08196446 -259.65152492 57.53892456 -265 58 C-268.05472892 58.64932873 -268.05472892 58.64932873 -270 61 C-270.78146771 65.35389151 -270.96145765 69.35750986 -268.6875 73.2421875 C-264.00983784 78.11475226 -254.27503489 77.52937238 -248 78 C-248 84.6 -248 91.2 -248 98 C-251.54817708 98.35807292 -255.09635417 98.71614583 -258.64453125 99.07421875 C-262.13022953 99.68319816 -262.13022953 99.68319816 -263.91796875 102.39453125 C-265.25744039 105.6199016 -265.57658301 107.54050193 -265 111 C-261.61628768 115.2296404 -259.18198914 116.62886934 -253.95703125 117.23828125 C-247.93788476 117.44659415 -243.03611384 116.42040002 -238 113 C-233.8907807 108.64095395 -230.91051403 104.60687655 -230.79467773 98.55029297 C-230.77473251 97.62948944 -230.75478729 96.70868591 -230.73423767 95.75997925 C-230.71752518 94.76410797 -230.70081268 93.76823669 -230.68359375 92.7421875 C-230.66281265 91.72399933 -230.64203156 90.70581116 -230.62062073 89.6567688 C-230.55510534 86.39624945 -230.49623098 83.13564794 -230.4375 79.875 C-230.39431668 77.66796017 -230.35070245 75.46092872 -230.30664062 73.25390625 C-230.1994219 67.83602225 -230.09816004 62.41805539 -230 57 C-233.3 57 -236.6 57 -240 57 C-240 50.07 -240 43.14 -240 36 C-193.47 36 -146.94 36 -99 36 C-99 42.93 -99 49.86 -99 57 C-104.61 57 -110.22 57 -116 57 C-116 77.46 -116 97.92 -116 119 C-115.34 119 -114.68 119 -114 119 C-113.62875 118.13375 -113.62875 118.13375 -113.25 117.25 C-111.83073705 114.6953267 -110.05930146 113.05930146 -108 111 C-106.76487921 108.86690808 -106.76487921 108.86690808 -106 107 C-105.34 107 -104.68 107 -104 107 C-103.938125 106.443125 -103.87625 105.88625 -103.8125 105.3125 C-102.66098245 102.03510391 -100.4965414 100.3804232 -98 98 C-97.278125 97.071875 -96.55625 96.14375 -95.8125 95.1875 C-95.214375 94.465625 -94.61625 93.74375 -94 93 C-93.34 93 -92.68 93 -92 93 C-91.63648438 92.17435547 -91.63648438 92.17435547 -91.265625 91.33203125 C-89.7194344 88.4830319 -87.82265316 86.17961868 -85.75 83.6875 C-84.94046875 82.71167969 -84.1309375 81.73585938 -83.296875 80.73046875 C-81.074004 78.08797415 -78.83311544 75.4632184 -76.57421875 72.8515625 C-74.61989238 70.55292552 -72.71736716 68.21478374 -70.8125 65.875 C-67.52153443 61.83808223 -64.18697814 57.8421592 -60.8125 53.875 C-56.34793113 48.62247164 -51.94364626 43.32228984 -47.5625 38 C-46.97122314 37.28183105 -46.37994629 36.56366211 -45.77075195 35.82373047 C-42.82179449 32.23564212 -39.89016986 28.63579107 -37 25 C-38.54239181 21.11742752 -40.97898091 19.05494219 -44.125 16.375 C-45.78643175 14.95831173 -47.42153065 13.50857403 -49 12 C-49 11.34 -49 10.68 -49 10 C-45.04244647 9.03842757 -41.08381991 8.08134414 -37.125 7.125 C-35.46210937 6.72087891 -35.46210937 6.72087891 -33.765625 6.30859375 C-27.90873915 4.89605069 -22.05387864 3.58977701 -16.13964844 2.44238281 C-12.47528087 1.68475684 -8.92484986 0.57430694 -5.34765625 -0.51171875 C-3 -1 -3 -1 0 0 Z " fill="#DDBC68" transform="translate(384,281)"/>
<path d="M0 0 C1.85546875 0.8203125 1.85546875 0.8203125 3.10546875 3.3828125 C3.35296875 4.1871875 3.60046875 4.9915625 3.85546875 5.8203125 C4.51546875 5.8203125 5.17546875 5.8203125 5.85546875 5.8203125 C7.13148206 8.31778273 8.40133046 10.81809186 9.66796875 13.3203125 C10.02439453 14.01640625 10.38082031 14.7125 10.74804688 15.4296875 C18.36086848 30.51564591 19.69365587 45.20454263 17.85546875 61.8203125 C17.72011719 63.13902344 17.72011719 63.13902344 17.58203125 64.484375 C15.36053124 79.24500842 6.70384206 94.84805485 -4.14453125 104.8203125 C-4.92828125 105.6453125 -5.71203125 106.4703125 -6.51953125 107.3203125 C-13.27126084 113.75053116 -22.31469153 121.8203125 -32.14453125 121.8203125 C-32.14453125 122.4803125 -32.14453125 123.1403125 -32.14453125 123.8203125 C-52.97727611 129.59572692 -73.72859327 129.68625946 -93.33203125 119.4453125 C-95.29297221 118.27540386 -97.23207829 117.06790993 -99.14453125 115.8203125 C-100.13710938 115.18222656 -101.1296875 114.54414063 -102.15234375 113.88671875 C-107.08528545 110.58206003 -107.08528545 110.58206003 -109.14453125 108.8203125 C-109.14453125 108.1603125 -109.14453125 107.5003125 -109.14453125 106.8203125 C-110.46453125 106.1603125 -111.78453125 105.5003125 -113.14453125 104.8203125 C-111.58680045 100.99679144 -109.22857867 98.52825657 -106.14453125 95.8203125 C-105.15453125 95.8203125 -104.16453125 95.8203125 -103.14453125 95.8203125 C-103.14453125 96.4803125 -103.14453125 97.1403125 -103.14453125 97.8203125 C-102.58636719 98.07554687 -102.02820313 98.33078125 -101.453125 98.59375 C-97.92454515 100.46849463 -94.85964707 102.9510594 -91.6796875 105.359375 C-88.87782788 106.97400597 -87.32060734 107.12712486 -84.14453125 106.8203125 C-87.66332566 103.08159344 -91.36399957 100.09909532 -95.5703125 97.15234375 C-96.08980469 96.71277344 -96.60929687 96.27320313 -97.14453125 95.8203125 C-97.14453125 95.1603125 -97.14453125 94.5003125 -97.14453125 93.8203125 C-98.13453125 93.4903125 -99.12453125 93.1603125 -100.14453125 92.8203125 C-99.56461712 89.45093802 -98.54103446 87.85478823 -96.08203125 85.5078125 C-95.53417969 84.97542969 -94.98632812 84.44304687 -94.421875 83.89453125 C-92.42462236 82.07542121 -90.4013574 80.29639805 -88.36328125 78.5234375 C-84.39423125 75.06191287 -80.53688402 71.49703696 -76.70703125 67.8828125 C-76.030354 67.24674072 -75.35367676 66.61066895 -74.65649414 65.95532227 C-70.95675386 62.4761834 -67.26457253 58.98909034 -63.57421875 55.5 C-62.82325928 54.79093506 -62.0722998 54.08187012 -61.29858398 53.35131836 C-59.86177182 51.99426755 -58.42630232 50.6357932 -56.99243164 49.27563477 C-53.28993018 45.77840269 -49.53348322 42.38095948 -45.63476562 39.10327148 C-43.3437846 37.130941 -41.25553526 34.98280441 -39.14453125 32.8203125 C-34.61752358 28.19531765 -30.02423197 23.76070624 -25.09375 19.56640625 C-22.47066241 17.21666646 -20.12218225 14.63980295 -17.78515625 12.0078125 C-16.14453125 10.8203125 -16.14453125 10.8203125 -13.94140625 11.1328125 C-13.05195313 11.473125 -13.05195313 11.473125 -12.14453125 11.8203125 C-11.79390625 10.9540625 -11.44328125 10.0878125 -11.08203125 9.1953125 C-8.79445125 5.21049573 -5.14547987 -0.4311331 0 0 Z " fill="#FDFDFA" transform="translate(361.14453125,346.1796875)"/>
<path d="M0 0 C9.6173761 9.6173761 15.22908579 23.22427765 15.57006836 36.78808594 C15.52302926 53.64325708 11.94519236 67.9743423 0.41796875 80.75390625 C-1 82 -1 82 -3 82 C-3 63.19 -3 44.38 -3 25 C-7.29 25.33 -11.58 25.66 -16 26 C-16.33 48.44 -16.66 70.88 -17 94 C-23 97 -23 97 -26 97 C-26 79.84 -26 62.68 -26 45 C-30.62 45 -35.24 45 -40 45 C-40 63.15 -40 81.3 -40 100 C-42.64 100 -45.28 100 -48 100 C-48 88.12 -48 76.24 -48 64 C-52.95 64 -57.9 64 -63 64 C-63 74.56 -63 85.12 -63 96 C-70.93850037 94.01537491 -77.0168378 90.63041341 -83 85 C-83 84.34 -83 83.68 -83 83 C-83.99 82.67 -84.98 82.34 -86 82 C-85.42008587 78.63062552 -84.39650321 77.03447573 -81.9375 74.6875 C-81.38964844 74.15511719 -80.84179688 73.62273437 -80.27734375 73.07421875 C-78.28009111 71.25510871 -76.25682615 69.47608555 -74.21875 67.703125 C-70.2497 64.24160037 -66.39235277 60.67672446 -62.5625 57.0625 C-61.88582275 56.42642822 -61.20914551 55.79035645 -60.51196289 55.13500977 C-56.81222261 51.6558709 -53.12004128 48.16877784 -49.4296875 44.6796875 C-48.67872803 43.97062256 -47.92776855 43.26155762 -47.15405273 42.53100586 C-45.71724057 41.17395505 -44.28177107 39.8154807 -42.84790039 38.45532227 C-39.14539893 34.95809019 -35.38895197 31.56064698 -31.49023438 28.28295898 C-29.19925335 26.3106285 -27.11100401 24.16249191 -25 22 C-20.47363312 17.37565981 -15.87336126 12.95064356 -10.95703125 8.7421875 C-8.31289491 6.38832561 -5.87588523 3.85704135 -3.4453125 1.28515625 C-2 0 -2 0 0 0 Z " fill="#DDBC68" transform="translate(347,357)"/>
<path d="M0 0 C2.46529955 1.58483543 2.9071255 3.38565786 3.75 6.125 C4.41 6.125 5.07 6.125 5.75 6.125 C7.02601331 8.62247023 8.29586171 11.12277936 9.5625 13.625 C9.91892578 14.32109375 10.27535156 15.0171875 10.64257812 15.734375 C18.25539973 30.82033341 19.58818712 45.50923013 17.75 62.125 C17.61464844 63.44371094 17.61464844 63.44371094 17.4765625 64.7890625 C15.25506249 79.54969592 6.59837331 95.15274235 -4.25 105.125 C-5.03375 105.95 -5.8175 106.775 -6.625 107.625 C-13.37672959 114.05521866 -22.42016028 122.125 -32.25 122.125 C-32.25 122.785 -32.25 123.445 -32.25 124.125 C-53.08274486 129.90041442 -73.83406202 129.99094696 -93.4375 119.75 C-95.39844096 118.58009136 -97.33754704 117.37259743 -99.25 116.125 C-100.24257813 115.48691406 -101.23515625 114.84882813 -102.2578125 114.19140625 C-107.1907542 110.88674753 -107.1907542 110.88674753 -109.25 109.125 C-109.25 108.465 -109.25 107.805 -109.25 107.125 C-110.57 106.465 -111.89 105.805 -113.25 105.125 C-111.6922692 101.30147894 -109.33404742 98.83294407 -106.25 96.125 C-105.26 96.125 -104.27 96.125 -103.25 96.125 C-103.25 96.785 -103.25 97.445 -103.25 98.125 C-102.68796875 98.38539063 -102.1259375 98.64578125 -101.546875 98.9140625 C-99.01517068 100.24880457 -96.81193349 101.81390838 -94.5 103.5 C-80.85380999 113.05233301 -64.88569449 117.13613227 -48.25 115.125 C-43.75077596 114.1458695 -39.54870444 112.75886943 -35.25 111.125 C-34.16525391 110.80208984 -34.16525391 110.80208984 -33.05859375 110.47265625 C-23.59829321 107.54856336 -16.35096822 100.63388397 -10.25 93.125 C-9.59 93.125 -8.93 93.125 -8.25 93.125 C-7.97800781 92.3825 -7.70601563 91.64 -7.42578125 90.875 C-6.31894697 88.28625804 -5.06973282 86.39892857 -3.4375 84.125 C3.42750973 72.87448037 6.0404124 57.09887604 4.75 44.125 C4.65460938 43.1246875 4.55921875 42.124375 4.4609375 41.09375 C2.94974777 29.59685561 -1.69445521 17.26018565 -10.25 9.125 C-8.63146344 4.75495129 -4.88913508 0.27161862 0 0 Z " fill="#DCBC6A" transform="translate(361.25,345.875)"/>
<path d="M0 0 C4.62 0 9.24 0 14 0 C23.13896458 17.92643052 23.13896458 17.92643052 26 27 C28.13197763 24.86802237 28.65616264 23.59851089 29.6875 20.8125 C32.43060296 13.70963643 35.73685426 6.8746048 39 0 C43.62 0 48.24 0 53 0 C53 23.76 53 47.52 53 72 C48.71 72 44.42 72 40 72 C39.67 57.81 39.34 43.62 39 29 C33.555 40.88 33.555 40.88 28 53 C24 52 24 52 22.62792969 49.86694336 C22.22993164 48.95050049 21.83193359 48.03405762 21.421875 47.08984375 C21.02581055 46.199021 20.62974609 45.30819824 20.22167969 44.39038086 C19.73602539 43.25093018 19.25037109 42.11147949 18.75 40.9375 C16.39875 35.5234375 16.39875 35.5234375 14 30 C13.67 43.86 13.34 57.72 13 72 C8.71 72 4.42 72 0 72 C0 48.24 0 24.48 0 0 Z " fill="#1C1C1D" transform="translate(388,360)"/>
<path d="M0 0 C4.95 0 9.9 0 15 0 C16.0209375 2.6915625 16.0209375 2.6915625 17.0625 5.4375 C19.16313154 10.9135053 21.3687812 16.33651083 23.625 21.75 C25.99379266 27.43965412 28.1428556 33.11904272 30 39 C30.33 39.66 30.66 40.32 31 41 C31.33 27.47 31.66 13.94 32 0 C35.96 0 39.92 0 44 0 C44 23.76 44 47.52 44 72 C39.38 72 34.76 72 30 72 C27.80711621 66.5583995 25.65217704 61.10709579 23.5625 55.625 C20.62896766 47.97427522 17.66623682 40.33247364 14 33 C13.67 45.87 13.34 58.74 13 72 C8.71 72 4.42 72 0 72 C0 48.24 0 24.48 0 0 Z " fill="#1E1E1E" transform="translate(514,360)"/>
<path d="M0 0 C26.18181818 0 26.18181818 0 34.3125 5.0625 C38.68201991 9.83848687 40.03547148 15.60644967 40.4375 22 C40.15853501 28.25135186 37.678075 34.6716938 33.25 39.125 C32.13625 40.053125 32.13625 40.053125 31 41 C32.46702597 45.55550171 34.14606221 50.00177369 35.9375 54.4375 C36.18951172 55.06720703 36.44152344 55.69691406 36.70117188 56.34570312 C37.97675252 59.51997415 39.29444966 62.66230613 40.69140625 65.78515625 C42 69 42 69 42 72 C37.38 72 32.76 72 28 72 C24.16524535 63.12528211 20.95151112 54.19364316 18 45 C16.35 44.67 14.7 44.34 13 44 C13 53.24 13 62.48 13 72 C8.71 72 4.42 72 0 72 C0 48.24 0 24.48 0 0 Z " fill="#1C1C1C" transform="translate(611,360)"/>
<path d="M0 0 C1.93166016 0.01740234 1.93166016 0.01740234 3.90234375 0.03515625 C5.19269531 0.04417969 6.48304688 0.05320312 7.8125 0.0625 C8.81152344 0.07410156 9.81054688 0.08570313 10.83984375 0.09765625 C13.36267759 7.18306192 15.43727975 14.279031 17.19384766 21.59179688 C18.80034361 28.16678903 20.74279332 34.62812609 22.73388672 41.09570312 C24.25880286 46.06654675 25.62116329 51.04368008 26.83984375 56.09765625 C27.19537855 57.52504802 27.5521703 58.95212725 27.91015625 60.37890625 C29.375 66.23828125 29.375 66.23828125 30.83984375 72.09765625 C26.21984375 72.09765625 21.59984375 72.09765625 16.83984375 72.09765625 C15.84984375 67.14765625 14.85984375 62.19765625 13.83984375 57.09765625 C7.23984375 57.09765625 0.63984375 57.09765625 -6.16015625 57.09765625 C-6.49015625 59.73765625 -6.82015625 62.37765625 -7.16015625 65.09765625 C-7.71361604 67.48924892 -8.42686278 69.75111716 -9.16015625 72.09765625 C-13.78015625 72.09765625 -18.40015625 72.09765625 -23.16015625 72.09765625 C-22.72316406 70.51855469 -22.28617187 68.93945312 -21.8359375 67.3125 C-20.50383128 62.42967129 -19.26612402 57.53039474 -18.06787109 52.61328125 C-15.73264358 43.03805684 -13.19023545 33.5737481 -10.28125 24.15722656 C-8.42276097 18.10478023 -6.8132606 12.01861239 -5.36474609 5.85546875 C-4.00239565 0.12368343 -4.00239565 0.12368343 0 0 Z " fill="#1B1B1B" transform="translate(473.16015625,359.90234375)"/>
<path d="M0 0 C4.62 0 9.24 0 14 0 C16.41553763 4.83107525 17.52953563 7.73420918 18.5625 12.8125 C20.86088592 23.41013511 24.17284688 33.72353695 27.38305664 44.0715332 C34 65.45514315 34 65.45514315 34 72 C29.71 72 25.42 72 21 72 C19 66 19 66 17 58 C10.73 58 4.46 58 -2 58 C-2.309375 59.93875 -2.61875 61.8775 -2.9375 63.875 C-3.875 69.75 -3.875 69.75 -5 72 C-9.62 72 -14.24 72 -19 72 C-16.7912728 63.05935424 -14.52340051 54.14021058 -12.1328125 45.24609375 C-10.72840379 40.00441222 -9.36646555 34.75167329 -8 29.5 C-6.24115529 22.74680943 -4.48012153 15.99431573 -2.6875 9.25 C-2.38199219 8.10015625 -2.07648437 6.9503125 -1.76171875 5.765625 C-1.22809962 3.82817707 -0.6354883 1.90646491 0 0 Z " fill="#1A1A1B" transform="translate(675,360)"/>
<path d="M0 0 C12.87 0 25.74 0 39 0 C39 4.29 39 8.58 39 13 C34.71 13 30.42 13 26 13 C26 32.47 26 51.94 26 72 C21.71 72 17.42 72 13 72 C13 52.53 13 33.06 13 13 C8.71 13 4.42 13 0 13 C0 8.71 0 4.42 0 0 Z " fill="#191919" transform="translate(566,360)"/>
<path d="M0 0 C3.96 0 7.92 0 12 0 C12 23.76 12 47.52 12 72 C7.38 72 2.76 72 -2 72 C-4.67988903 65.34990501 -7.29033978 58.67716893 -9.8515625 51.98046875 C-10.58867471 50.06748705 -11.37179561 48.17125559 -12.2109375 46.30078125 C-13.31916253 43.06937261 -12.05879203 41.17637608 -11 38 C-9.515 37.505 -9.515 37.505 -8 37 C-7.67 37.66 -7.34 38.32 -7 39 C-5.35 39 -3.7 39 -2 39 C-1.67 39.66 -1.34 40.32 -1 41 C-0.67 27.47 -0.34 13.94 0 0 Z " fill="#171717" transform="translate(546,360)"/>
<path d="M0 0 C0.99 0.66 1.98 1.32 3 2 C3.99 1.34 4.98 0.68 6 0 C6.99 0 7.98 0 9 0 C11.77998642 9.72995247 11.86648208 16.93559409 7 26 C5.44523993 27.9687755 3.93886096 29.38428253 2 31 C3.46702597 35.55550171 5.14606221 40.00177369 6.9375 44.4375 C7.18951172 45.06720703 7.44152344 45.69691406 7.70117188 46.34570312 C8.97675252 49.51997415 10.29444966 52.66230613 11.69140625 55.78515625 C13 59 13 59 13 62 C8.38 62 3.76 62 -1 62 C-4.15688167 54.69407384 -6.97119964 47.44560691 -9.21166992 39.81420898 C-9.8243305 37.74844614 -9.8243305 37.74844614 -11 35 C-11.99 34.67 -12.98 34.34 -14 34 C-14.33 32.02 -14.66 30.04 -15 28 C-14.34 27.67 -13.68 27.34 -13 27 C-12.7525 26.360625 -12.505 25.72125 -12.25 25.0625 C-10.46104938 22.11073148 -8.19844201 22.02077936 -5 21 C-3.97164637 17.91493912 -3.86631566 15.7305728 -3.875 12.5 C-3.87242187 11.5409375 -3.86984375 10.581875 -3.8671875 9.59375 C-3.89007028 6.88428848 -3.89007028 6.88428848 -5 4 C-4.0409375 3.8453125 -4.0409375 3.8453125 -3.0625 3.6875 C-2.381875 3.460625 -1.70125 3.23375 -1 3 C-0.67 2.01 -0.34 1.02 0 0 Z " fill="#1A1A1A" transform="translate(640,370)"/>
<path d="M0 0 C4.29 0 8.58 0 13 0 C13.33 11.88 13.66 23.76 14 36 C15.98 36 17.96 36 20 36 C20 36.66 20 37.32 20 38 C11.98298054 38.41467342 4.78069851 36.85939879 -3 35 C-3 34.01 -3 33.02 -3 32 C-2.01 31.67 -1.02 31.34 0 31 C0 20.77 0 10.54 0 0 Z " fill="#FDFDFA" transform="translate(285,422)"/>
<path d="M0 0 C8.94129226 5.96086151 12.16227632 16.11401579 14.45703125 26.2109375 C18.25920309 45.74151802 14.99565538 64.74590055 3.98828125 81.45703125 C3.33214844 82.29621094 2.67601562 83.13539063 2 84 C1.34 84 0.68 84 0 84 C-0.66 85.32 -1.32 86.64 -2 88 C-2.99 86.68 -3.98 85.36 -5 84 C-4.43732422 83.30777344 -4.43732422 83.30777344 -3.86328125 82.6015625 C0.23486954 77.37822673 3.38254161 72.10156689 6 66 C6.39574219 65.09121094 6.79148437 64.18242187 7.19921875 63.24609375 C12.37815048 49.30840731 11.86460221 32.99602385 6.5 19.21875 C3.72062078 13.25466543 0.85173311 7.53593983 -4 3 C-3.01 2.67 -2.02 2.34 -1 2 C-0.67 1.34 -0.34 0.68 0 0 Z " fill="#FDFAEC" transform="translate(351,355)"/>
<path d="M0 0 C0.495 1.98 0.495 1.98 1 4 C0.34 4 -0.32 4 -1 4 C-1 4.66 -1 5.32 -1 6 C-4.46153846 9 -4.46153846 9 -7 9 C-7.226875 9.556875 -7.45375 10.11375 -7.6875 10.6875 C-9.36718835 13.6469509 -11.54133285 15.66126784 -14 18 C-14.53625 18.5775 -15.0725 19.155 -15.625 19.75 C-17 21 -17 21 -20 22 C-21.39712274 23.95597184 -22.73779907 25.95436401 -24 28 C-23.12355567 30.17728073 -23.12355567 30.17728073 -21 32 C-18.03 32 -15.06 32 -12 32 C-11.67 48.17 -11.34 64.34 -11 81 C-9.35 81.66 -7.7 82.32 -6 83 C-9.625 86 -9.625 86 -13 86 C-13 68.84 -13 51.68 -13 34 C-17.62 34 -22.24 34 -27 34 C-27 52.15 -27 70.3 -27 89 C-29.64 89 -32.28 89 -35 89 C-35 77.45 -35 65.9 -35 54 C-34.67 54 -34.34 54 -34 54 C-34 65.22 -34 76.44 -34 88 C-32.02 88 -30.04 88 -28 88 C-28.33 71.5 -28.66 55 -29 38 C-30.485 38.495 -30.485 38.495 -32 39 C-32.495 37.515 -32.495 37.515 -33 36 C-33.99 36 -34.98 36 -36 36 C-36.33 36.99 -36.66 37.98 -37 39 C-37.66 39 -38.32 39 -39 39 C-39.309375 39.928125 -39.309375 39.928125 -39.625 40.875 C-41.54775888 43.84653645 -43.66594527 44.13024659 -47 45 C-42.51911489 39.57055469 -37.71632397 34.72677408 -32.5625 29.9375 C-31.83740234 29.25623047 -31.11230469 28.57496094 -30.36523438 27.87304688 C-26.47895735 24.23817321 -22.54064446 20.69078897 -18.46826172 17.26538086 C-16.18568173 15.29820226 -14.10418398 13.15550554 -12 11 C-10.6490085 9.62188015 -9.29459084 8.24711399 -7.9375 6.875 C-7.28652344 6.21242188 -6.63554687 5.54984375 -5.96484375 4.8671875 C-4.07218581 3.06859805 -2.11981582 1.52022426 0 0 Z " fill="#D8BF7D" transform="translate(334,368)"/>
<path d="M0 0 C0.33 0 0.66 0 1 0 C1.0462815 8.96192395 1.0818478 17.92380695 1.10362434 26.8858242 C1.11407446 31.04697253 1.12825592 35.20803926 1.15087891 39.36914062 C1.17256371 43.38266429 1.18455937 47.39610933 1.18975449 51.40968704 C1.19345811 52.94314436 1.20069011 54.47659724 1.21146011 56.01002121 C1.22591729 58.15309801 1.2279804 60.29584736 1.22705078 62.43896484 C1.231492 63.66030121 1.23593323 64.88163757 1.24050903 66.13998413 C1 69 1 69 -1 71 C-0.01 71.33 0.98 71.66 2 72 C2 71.34 2 70.68 2 70 C3.32 70.33 4.64 70.66 6 71 C2.17775625 73.5481625 -1.63905025 74.64385099 -6 76 C-6.804375 76.28359375 -7.60875 76.5671875 -8.4375 76.859375 C-23.56952127 81.74960139 -40.22140349 79.45882078 -54.51171875 72.8359375 C-55.00285156 72.56007813 -55.49398438 72.28421875 -56 72 C-56 71.34 -56 70.68 -56 70 C-55.01 70 -54.02 70 -53 70 C-53.33 69.01 -53.66 68.02 -54 67 C-52.8553125 67.4640625 -52.8553125 67.4640625 -51.6875 67.9375 C-49.81210323 68.67893593 -47.91315348 69.36228217 -46 70 C-46 59.44 -46 48.88 -46 38 C-41.05 38 -36.1 38 -31 38 C-31 49.55 -31 61.1 -31 73 C-31.33 73 -31.66 73 -32 73 C-32 61.78 -32 50.56 -32 39 C-36.29 39 -40.58 39 -45 39 C-44.94875977 39.92337158 -44.89751953 40.84674316 -44.84472656 41.7980957 C-44.66435621 45.22491663 -44.50246118 48.65157899 -44.35302734 52.07983398 C-44.28457371 53.56326651 -44.20877538 55.04637907 -44.12548828 56.52905273 C-44.00701381 58.66087951 -43.91502545 60.79246307 -43.828125 62.92578125 C-43.7652832 64.20880127 -43.70244141 65.49182129 -43.63769531 66.8137207 C-44 70 -44 70 -46.01074219 71.94213867 C-46.66719727 72.29123291 -47.32365234 72.64032715 -48 73 C-35.34018464 76.3706006 -19.66657426 78.74996535 -7 74 C-6.67 73.34 -6.34 72.68 -6 72 C-6.99 71.67 -7.98 71.34 -9 71 C-6.03 70.01 -3.06 69.02 0 68 C0 45.56 0 23.12 0 0 Z " fill="#F9EED3" transform="translate(330,383)"/>
<path d="M0 0 C9 1 9 1 11.5625 2.375 C13.94063594 6.71768302 13.73433757 11.17540218 13 16 C11.25 18.5625 11.25 18.5625 9 20 C8.360625 20.4125 7.72125 20.825 7.0625 21.25 C5 22 5 22 0 22 C0 14.74 0 7.48 0 0 Z " fill="#EEEEEE" transform="translate(624,372)"/>
<path d="M0 0 C46.2 0 92.4 0 140 0 C140 6.27 140 12.54 140 19 C134.39 19 128.78 19 123 19 C123.33 18.34 123.66 17.68 124 17 C128.62 17 133.24 17 138 17 C137.67 12.05 137.34 7.1 137 2 C92.12 1.67 47.24 1.34 1 1 C1 6.61 1 12.22 1 18 C3.97 17.67 6.94 17.34 10 17 C10 17.99 10 18.98 10 20 C6.7 20 3.4 20 0 20 C0 13.4 0 6.8 0 0 Z " fill="#D6BC71" transform="translate(144,318)"/>
<path d="M0 0 C0.99 0.33 1.98 0.66 3 1 C0.30471327 4.69354107 -2.08979114 6.71109725 -6 9 C-8.68382074 11.48253418 -11.020698 14.02573264 -13.3125 16.875 C-15.24436619 19.24074127 -17.30622493 21.19487452 -19.63671875 23.16796875 C-24.13369623 27.05841056 -28.32226564 31.20947809 -32.5 35.4375 C-33.59054688 36.53481445 -33.59054688 36.53481445 -34.703125 37.65429688 C-36.47109499 39.43389824 -38.23666378 41.21580918 -40 43 C-40 39.21684503 -39.12205431 38.74179954 -36.5625 36.0625 C-32.24876201 31.40274025 -28.57495094 26.46086359 -24.8828125 21.30859375 C-24.26148438 20.54675781 -23.64015625 19.78492188 -23 19 C-22.34 19 -21.68 19 -21 19 C-20.64228516 18.18402344 -20.64228516 18.18402344 -20.27734375 17.3515625 C-18.6736215 14.39914417 -16.69349086 11.97137966 -14.5625 9.375 C-13.78003906 8.41335938 -12.99757812 7.45171875 -12.19140625 6.4609375 C-10 4 -10 4 -7 2 C-7 3.32 -7 4.64 -7 6 C-4.54775306 5.89386164 -4.54775306 5.89386164 -2 5 C-0.62533375 2.52363988 -0.62533375 2.52363988 0 0 Z " fill="#DDC481" transform="translate(245,436)"/>
<path d="M0 0 C4.62 0 9.24 0 14 0 C14 17.16 14 34.32 14 52 C13.67 52 13.34 52 13 52 C13 35.5 13 19 13 2 C9.7 2 6.4 2 3 2 C3 19.16 3 36.32 3 54 C1.515 54.495 1.515 54.495 0 55 C0 36.85 0 18.7 0 0 Z " fill="#FDF6DA" transform="translate(307,402)"/>
<path d="M0 0 C1.81852214 2.72778322 2.33977494 3.88056328 2.9375 6.9375 C3.93609681 11.80266365 5.16002468 16.5933619 6.4140625 21.3984375 C7 24 7 24 7 27 C2.71 27 -1.58 27 -6 27 C-2.57894737 5.15789474 -2.57894737 5.15789474 0 0 Z " fill="#ECECEC" transform="translate(682,379)"/>
<path d="M0 0 C3.02732988 3.02732988 3.51915859 6.68667575 4.625 10.75 C4.85445313 11.54921875 5.08390625 12.3484375 5.3203125 13.171875 C5.536875 13.955625 5.7534375 14.739375 5.9765625 15.546875 C6.17330566 16.25682617 6.37004883 16.96677734 6.57275391 17.69824219 C7 20 7 20 7 26 C2.71 26 -1.58 26 -6 26 C-4.10377974 17.30899048 -2.04731567 8.65636869 0 0 Z " fill="#EFEFF0" transform="translate(476,380)"/>
<path d="M0 0 C0.33 0 0.66 0 1 0 C1 16.83 1 33.66 1 51 C-3.77737198 49.08905121 -5.62722811 47.66186662 -9 44 C-6.03 43.505 -6.03 43.505 -3 43 C-2.96241577 41.41747437 -2.96241577 41.41747437 -2.92407227 39.80297852 C-2.83015891 35.90229372 -2.72989966 32.00179375 -2.62768555 28.10131836 C-2.58427561 26.41060701 -2.54260511 24.71985009 -2.50268555 23.02905273 C-2.44512906 20.60386394 -2.38139351 18.17890585 -2.31640625 15.75390625 C-2.29133751 14.61327477 -2.29133751 14.61327477 -2.26576233 13.44960022 C-2.11387171 8.11387171 -2.11387171 8.11387171 -1 7 C-0.63239269 4.67182036 -0.29758419 2.3381615 0 0 Z " fill="#E2C98A" transform="translate(383,281)"/>
<path d="M0 0 C-0.33 1.32 -0.66 2.64 -1 4 C-1.66 4 -2.32 4 -3 4 C-3 4.66 -3 5.32 -3 6 C-3.99 6 -4.98 6 -6 6 C-6.99939172 13.22533204 -6.96290189 18.95664616 -5 26 C-4.34 26 -3.68 26 -3 26 C-2.67 27.32 -2.34 28.64 -2 30 C-1.34 30 -0.68 30 0 30 C0 30.66 0 31.32 0 32 C0.78375 32.309375 1.5675 32.61875 2.375 32.9375 C5 34 5 34 7 35 C8.37342831 35.0689472 9.75002102 35.08467708 11.125 35.0625 C13.043125 35.0315625 13.043125 35.0315625 15 35 C15 34.34 15 33.68 15 33 C15.66 33 16.32 33 17 33 C17.66 28.05 18.32 23.1 19 18 C19.66 18 20.32 18 21 18 C21.23893805 31.67256637 21.23893805 31.67256637 17.375 35.8125 C14.99676725 37.58208551 13.76113722 38.05052867 10.75 38.6875 C4.24610388 37.49511905 -0.7690378 34.74342085 -4.97265625 29.57421875 C-8.98429992 23.02091904 -10.40763 16.6164786 -9 9 C-4.32467532 0 -4.32467532 0 0 0 Z " fill="#D9C182" transform="translate(199,367)"/>
<path d="M0 0 C0.99 0.33 1.98 0.66 3 1 C2.49396008 3.16874252 2.00016187 4.99967627 1 7 C1.66 7.33 2.32 7.66 3 8 C1.02 8.99 1.02 8.99 -1 10 C-1.33 9.01 -1.66 8.02 -2 7 C-2.6496875 8.1446875 -2.6496875 8.1446875 -3.3125 9.3125 C-5.86476868 13.3772242 -5.86476868 13.3772242 -8 15 C-9.32 15 -10.64 15 -12 15 C-12 15.66 -12 16.32 -12 17 C-11.01 17.33 -10.02 17.66 -9 18 C-11.31 18.66 -13.62 19.32 -16 20 C-16.6875 17.75 -16.6875 17.75 -17 15 C-15.22184951 11.72445963 -13.31927505 10.50876138 -10 9 C-9.29875 8.46375 -8.5975 7.9275 -7.875 7.375 C-6 6 -6 6 -4 6 C-3.566875 5.071875 -3.566875 5.071875 -3.125 4.125 C-2 2 -2 2 0 0 Z " fill="#DBBC64" transform="translate(353,441)"/>
<path d="M0 0 C0.99 0.33 1.98 0.66 3 1 C3 1.99 3 2.98 3 4 C5.3137865 6.27029857 5.3137865 6.27029857 8.25 8.5 C9.22453125 9.2734375 10.1990625 10.046875 11.203125 10.84375 C12.89599092 12.14886451 14.60986052 13.42811401 16.359375 14.65625 C16.90078125 15.0996875 17.4421875 15.543125 18 16 C18 16.66 18 17.32 18 18 C15.81640625 18.703125 15.81640625 18.703125 13 19 C10.46484375 17.671875 10.46484375 17.671875 7.9375 15.75 C7.10089844 15.12609375 6.26429688 14.5021875 5.40234375 13.859375 C4.21318359 12.93898438 4.21318359 12.93898438 3 12 C2.23816406 11.46890625 1.47632813 10.9378125 0.69140625 10.390625 C0.13324219 9.93171875 -0.42492187 9.4728125 -1 9 C-1 8.34 -1 7.68 -1 7 C-1.99 6.67 -2.98 6.34 -4 6 C-3.01 5.34 -2.02 4.68 -1 4 C-0.27617533 1.94074861 -0.27617533 1.94074861 0 0 Z " fill="#FCF8E9" transform="translate(259,435)"/>
<path d="M0 0 C7.81636537 1.91722169 7.81636537 1.91722169 10 5 C10 5.66 10 6.32 10 7 C11.32 7 12.64 7 14 7 C14.33 7.99 14.66 8.98 15 10 C13.68 10.33 12.36 10.66 11 11 C11 11.99 11 12.98 11 14 C8.03 13.01 5.06 12.02 2 11 C2 10.34 2 9.68 2 9 C1.34 9 0.68 9 0 9 C0 8.01 0 7.02 0 6 C-0.99 5.67 -1.98 5.34 -3 5 C-1.125 1.125 -1.125 1.125 0 0 Z " fill="#DDBC65" transform="translate(254,445)"/>
<path d="M0 0 C1.32 0 2.64 0 4 0 C4.5625 1.9375 4.5625 1.9375 5 4 C4.67 4.33 4.34 4.66 4 5 C3.76304852 7.69422605 3.57831398 10.36334611 3.4375 13.0625 C3.293125 15.681875 3.14875 18.30125 3 21 C9.93 21.33 16.86 21.66 24 22 C24.33 22.66 24.66 23.32 25 24 C21.18751574 24.02887236 17.3750593 24.04675492 13.5625 24.0625 C12.47388672 24.07087891 11.38527344 24.07925781 10.26367188 24.08789062 C9.22919922 24.09111328 8.19472656 24.09433594 7.12890625 24.09765625 C6.17056885 24.10289307 5.21223145 24.10812988 4.22485352 24.11352539 C2 24 2 24 1 23 C0.84259395 21.29436222 0.74906608 19.58272756 0.68359375 17.87109375 C0.64169922 16.83662109 0.59980469 15.80214844 0.55664062 14.73632812 C0.51732422 13.64771484 0.47800781 12.55910156 0.4375 11.4375 C0.39431641 10.34501953 0.35113281 9.25253906 0.30664062 8.12695312 C0.20017932 5.41810436 0.09816484 2.70916008 0 0 Z " fill="#DDC68E" transform="translate(153,411)"/>
<path d="M0 0 C2 2 2 2 2 5 C0.3810067 6.76617451 -1.25234891 8.37002118 -3 10 C-4.2123059 11.20434766 -5.42050871 12.4128368 -6.625 13.625 C-10 17 -10 17 -11.62109375 18.55859375 C-13.15714152 20.05443436 -13.15714152 20.05443436 -14.4375 22.4375 C-16.02821216 25.04626794 -17.77204439 26.9256965 -20 29 C-20.99 28.67 -21.98 28.34 -23 28 C-22.57589844 27.52691406 -22.15179688 27.05382812 -21.71484375 26.56640625 C-17.94234098 22.31301302 -14.37104067 17.96252338 -10.91015625 13.453125 C-7.36251625 8.89705563 -3.67263883 4.45546887 0 0 Z " fill="#DBC382" transform="translate(322,336)"/>
<path d="M0 0 C0 0.99 0 1.98 0 3 C-1.63064764 4.05771739 -3.30280873 5.05273046 -5 6 C-5.53625 6.556875 -6.0725 7.11375 -6.625 7.6875 C-8 9 -8 9 -11 9 C-11.33 10.65 -11.66 12.3 -12 14 C-12.66 14 -13.32 14 -14 14 C-14 15.32 -14 16.64 -14 18 C-14.66 18 -15.32 18 -16 18 C-15.85975781 20.47960136 -15.7130815 22.95852402 -15.5625 25.4375 C-15.52318359 26.14455078 -15.48386719 26.85160156 -15.44335938 27.58007812 C-15.52375562 31.08690419 -15.52375562 31.08690419 -14 34 C-13.95919217 35.99958364 -13.95745644 38.00045254 -14 40 C-17.81870836 36.18129164 -18.21371586 31.58264488 -18.5 26.375 C-18.39583891 19.43092712 -16.00630159 13.64190178 -12 8 C-9.796875 6.6640625 -9.796875 6.6640625 -8 6 C-8 5.34 -8 4.68 -8 4 C-2.58823529 0 -2.58823529 0 0 0 Z " fill="#DAC184" transform="translate(108,318)"/>
<path d="M0 0 C2.97 0 5.94 0 9 0 C9.66 0.66 10.32 1.32 11 2 C6.545 2.495 6.545 2.495 2 3 C1.67 25.44 1.34 47.88 1 71 C0.67 71 0.34 71 0 71 C0 47.57 0 24.14 0 0 Z " fill="#DAC17E" transform="translate(329,380)"/>
<path d="M0 0 C0.66 0.66 1.32 1.32 2 2 C2.99 2.33 3.98 2.66 5 3 C4.17822266 3.71349609 4.17822266 3.71349609 3.33984375 4.44140625 C-4.7863888 11.61627499 -12.38728285 19.2881192 -20 27 C-20 23.21684503 -19.12205431 22.74179954 -16.5625 20.0625 C-12.24876201 15.40274025 -8.57495094 10.46086359 -4.8828125 5.30859375 C-4.26148438 4.54675781 -3.64015625 3.78492188 -3 3 C-2.34 3 -1.68 3 -1 3 C-0.67 2.01 -0.34 1.02 0 0 Z " fill="#DCCB95" transform="translate(225,452)"/>
<path d="M0 0 C1.32 0.33 2.64 0.66 4 1 C4.6875 2.8125 4.6875 2.8125 5 5 C3.6875 6.75 3.6875 6.75 2 8 C1.34 8 0.68 8 0 8 C0 8.66 0 9.32 0 10 C-1.57421875 11.5859375 -1.57421875 11.5859375 -3.6875 13.375 C-4.41324219 13.99246094 -5.13898438 14.60992187 -5.88671875 15.24609375 C-8.23449112 17.19461463 -10.59564775 19.1215998 -13 21 C-13 19.35 -13 17.7 -13 16 C-10.99967627 14.99983813 -9.16874252 14.50603992 -7 14 C-7 13.01 -7 12.02 -7 11 C-6.34 11 -5.68 11 -5 11 C-4.9175 10.484375 -4.835 9.96875 -4.75 9.4375 C-3.67859775 5.95544268 -1.86476395 3.12799115 0 0 Z " fill="#DEC072" transform="translate(288,390)"/>
<path d="M0 0 C1.32 0.33 2.64 0.66 4 1 C3.67 3.97 3.34 6.94 3 10 C2.67 9.01 2.34 8.02 2 7 C1.01 7.33 0.02 7.66 -1 8 C-1.33 7.01 -1.66 6.02 -2 5 C-2.99 5 -3.98 5 -5 5 C-5.33 5.99 -5.66 6.98 -6 8 C-6.66 8 -7.32 8 -8 8 C-8.20625 8.61875 -8.4125 9.2375 -8.625 9.875 C-10.54775888 12.84653645 -12.66594527 13.13024659 -16 14 C-6.74633305 3.01898188 -6.74633305 3.01898188 -1 1 C-0.67 0.67 -0.34 0.34 0 0 Z " fill="#DDBD68" transform="translate(303,399)"/>
<path d="M0 0 C1.24546405 2.49092811 0.7767578 3.41080733 0 6 C0.69867188 5.97679687 1.39734375 5.95359375 2.1171875 5.9296875 C3.02726562 5.91164063 3.93734375 5.89359375 4.875 5.875 C6.23238281 5.84019531 6.23238281 5.84019531 7.6171875 5.8046875 C10 6 10 6 12 8 C6.33333333 8 0.66666667 8 -5 8 C-5.33 8.66 -5.66 9.32 -6 10 C-6.99 10 -7.98 10 -9 10 C-9.33 10.99 -9.66 11.98 -10 13 C-11.95597184 14.39712274 -13.95436401 15.73779907 -16 17 C-16.66 16.67 -17.32 16.34 -18 16 C-12.04288271 10.61662147 -6.0614973 5.26571414 0 0 Z " fill="#D8C07D" transform="translate(286,413)"/>
<path d="M0 0 C0 0.66 0 1.32 0 2 C1.32 2.66 2.64 3.32 4 4 C3.67 4.66 3.34 5.32 3 6 C0.69 5.34 -1.62 4.68 -4 4 C-4.66 5.32 -5.32 6.64 -6 8 C-5.34 8.33 -4.68 8.66 -4 9 C-4 9.99 -4 10.98 -4 12 C-3.34 12 -2.68 12 -2 12 C-2 12.66 -2 13.32 -2 14 C-0.68 14 0.64 14 2 14 C2 14.99 2 15.98 2 17 C2.639375 17.28875 3.27875 17.5775 3.9375 17.875 C6 19 6 19 7 21 C3.93124691 19.5360077 1.09565257 17.85990364 -1.75 16 C-2.54921875 15.484375 -3.3484375 14.96875 -4.171875 14.4375 C-4.77515625 13.963125 -5.3784375 13.48875 -6 13 C-6 12.34 -6 11.68 -6 11 C-7.32 10.34 -8.64 9.68 -10 9 C-8.13405729 4.41995879 -5.20913241 0 0 0 Z " fill="#DBC684" transform="translate(258,442)"/>
<path d="M0 0 C0.33 0 0.66 0 1 0 C1.375 2.75 1.375 2.75 1 6 C-3.07850873 9.68060544 -6.6291839 10.4734494 -12 11 C-12.33 11.33 -12.66 11.66 -13 12 C-19.10246958 12.68096227 -23.57280022 11.77133606 -29 9 C-28.67 8.34 -28.34 7.68 -28 7 C-26.7934375 7.495 -26.7934375 7.495 -25.5625 8 C-18.38199286 10.01558095 -12.66549712 9.49288603 -5.94921875 6.22265625 C-3.32843285 4.57875647 -1.70399444 2.55599166 0 0 Z " fill="#D8C083" transform="translate(150,389)"/>
<path d="M0 0 C0.99 0.33 1.98 0.66 3 1 C3.13277344 1.92683594 3.26554687 2.85367187 3.40234375 3.80859375 C3.57894531 5.00613281 3.75554687 6.20367187 3.9375 7.4375 C4.11152344 8.63246094 4.28554688 9.82742188 4.46484375 11.05859375 C4.68985213 13.87955676 4.68985213 13.87955676 6 15 C6.29106687 17.81952654 6.5152617 20.61049542 6.6875 23.4375 C6.74744141 24.22705078 6.80738281 25.01660156 6.86914062 25.83007812 C6.99691434 27.8832092 7.00621478 29.94290624 7 32 C6.34 32.66 5.68 33.32 5 34 C4.67 34.99 4.34 35.98 4 37 C2.31764673 33.63529345 2.99210831 29.82109452 3.0625 26.125 C3.15670155 17.1147491 2.25077703 8.73950361 0 0 Z " fill="#D8BC7B" transform="translate(363,374)"/>
<path d="M0 0 C4.97248467 7.458727 5.46040471 15.69928981 5.3125 24.4375 C5.31572266 25.41654297 5.31894531 26.39558594 5.32226562 27.40429688 C5.26787887 34.5981817 5.26787887 34.5981817 3 38 C2.98018066 37.32533691 2.96036133 36.65067383 2.93994141 35.95556641 C2.8436189 32.84504139 2.7343819 29.73509211 2.625 26.625 C2.5940625 25.56410156 2.563125 24.50320313 2.53125 23.41015625 C2.31319945 17.48644958 1.76964568 11.91079825 0.41552734 6.13427734 C0 4 0 4 0 0 Z " fill="#D9BF7F" transform="translate(357,373)"/>
<path d="M0 0 C4.95 0 9.9 0 15 0 C15 0.33 15 0.66 15 1 C13.84371094 1.05607422 13.84371094 1.05607422 12.6640625 1.11328125 C11.15972656 1.21189453 11.15972656 1.21189453 9.625 1.3125 C8.12839844 1.39951172 8.12839844 1.39951172 6.6015625 1.48828125 C5.74304688 1.65714844 4.88453125 1.82601563 4 2 C1.91617138 5.12574293 1.74110041 5.90452555 1.68115234 9.47143555 C1.66128265 10.37214279 1.64141296 11.27285004 1.62094116 12.20085144 C1.60938995 13.16968765 1.59783875 14.13852386 1.5859375 15.13671875 C1.56657135 16.13129593 1.5472052 17.12587311 1.5272522 18.15058899 C1.46743841 21.3294719 1.42106361 24.50839098 1.375 27.6875 C1.3368219 29.84181273 1.29777027 31.99611017 1.2578125 34.15039062 C1.16173549 39.43345809 1.07669326 44.71661753 1 50 C0.67 50 0.34 50 0 50 C0 33.5 0 17 0 0 Z " fill="#FFFCED" transform="translate(268,338)"/>
<path d="M0 0 C0.33 0 0.66 0 1 0 C1.10149262 6.74425389 1.17150433 13.48831055 1.21972656 20.2331543 C1.23983106 22.52717448 1.26711891 24.82114348 1.30175781 27.11499023 C1.35032559 30.41402826 1.37298077 33.71238822 1.390625 37.01171875 C1.41127014 38.03585373 1.43191528 39.05998871 1.45318604 40.11515808 C1.45458979 44.5784823 1.42632521 47.26039035 -0.83691406 51.18676758 C-3 53 -3 53 -6 53 C-4.98333945 50.81026957 -4.00596235 49.00714492 -2.45280457 47.14593506 C-0.77217373 44.66347821 -0.60928137 43.38083331 -0.56762695 40.41503906 C-0.54783279 39.51440735 -0.52803864 38.61377563 -0.50764465 37.68585205 C-0.49805977 36.24033966 -0.49805977 36.24033966 -0.48828125 34.765625 C-0.47033005 33.77246277 -0.45237885 32.77930054 -0.43388367 31.75604248 C-0.37974994 28.58740469 -0.34587472 25.41891782 -0.3125 22.25 C-0.27932968 20.10023941 -0.24484029 17.95049873 -0.20898438 15.80078125 C-0.1240219 10.53398949 -0.05568499 5.26717827 0 0 Z " fill="#D9BE7D" transform="translate(244,385)"/>
<path d="M0 0 C-3.18990161 1.76624624 -6.2706169 2.6634063 -9.8125 3.5 C-13.17909871 4.30390296 -16.44774141 5.14178478 -19.75 6.1875 C-23.66690709 7.16672677 -26.97359962 7.14127721 -31 7 C-31.33 7.66 -31.66 8.32 -32 9 C-32.33 8.01 -32.66 7.02 -33 6 C-29.00371932 4.98472869 -25.00246688 3.99057709 -21 3 C-19.31197266 2.57074219 -19.31197266 2.57074219 -17.58984375 2.1328125 C-11.56489065 0.65299946 -6.2053247 -0.3650191 0 0 Z " fill="#DCC484" transform="translate(368,285)"/>
<path d="M0 0 C1.794375 0.13535156 1.794375 0.13535156 3.625 0.2734375 C6.47913601 0.57074333 9.20262579 0.99982925 12 1.625 C12 1.955 12 2.285 12 2.625 C7.68282372 3.68535909 3.48133489 3.77461746 -0.9375 3.75 C-1.62779297 3.75386719 -2.31808594 3.75773437 -3.02929688 3.76171875 C-7.12408324 3.75395612 -10.98358696 3.41696877 -15 2.625 C-10.0108032 -0.7011312 -5.87402756 -0.46840306 0 0 Z " fill="#DBC583" transform="translate(305,470.375)"/>
<path d="M0 0 C21.12 0 42.24 0 64 0 C63.67 0.99 63.34 1.98 63 3 C62.34 2.67 61.68 2.34 61 2 C59.06028622 1.87994453 57.11656384 1.82266656 55.17333984 1.79467773 C53.95222504 1.77473251 52.73111023 1.75478729 51.47299194 1.73423767 C50.13564177 1.71725344 48.79829025 1.70037463 47.4609375 1.68359375 C46.09615447 1.66302397 44.73137782 1.64202749 43.36660767 1.62062073 C39.77292027 1.56540241 36.1791754 1.51599213 32.58538818 1.46777344 C28.91885254 1.41755663 25.25240044 1.36187151 21.5859375 1.30664062 C14.39069574 1.199062 7.19538454 1.09761643 0 1 C0 0.67 0 0.34 0 0 Z " fill="#FFFEEC" transform="translate(179,338)"/>
<path d="M0 0 C0.33 0 0.66 0 1 0 C1.33 15.18 1.66 30.36 2 46 C3.65 46.66 5.3 47.32 7 48 C3.375 51 3.375 51 0 51 C0 34.17 0 17.34 0 0 Z " fill="#D5C18E" transform="translate(321,403)"/>
<path d="M0 0 C3.26737303 3.26737303 3.95672896 6.83168198 4.125 11.375 C4.08375 12.24125 4.0425 13.1075 4 14 C3.34 14 2.68 14 2 14 C2.2475 15.36125 2.2475 15.36125 2.5 16.75 C4.48309383 30.77535926 4.48309383 30.77535926 1 36 C0.8030007 31.9170667 0.61904524 27.83364734 0.4375 23.75 C0.38142578 22.59113281 0.32535156 21.43226563 0.26757812 20.23828125 C0.21923828 19.12324219 0.17089844 18.00820313 0.12109375 16.859375 C0.0739624 15.83295898 0.02683105 14.80654297 -0.02172852 13.74902344 C-0.00202657 11.2563956 0.38640458 9.3870016 1 7 C0.72686657 4.65885633 0.40197001 2.32249342 0 0 Z " fill="#FBF4DC" transform="translate(361,370)"/>
<path d="M0 0 C0.66 0 1.32 0 2 0 C7 5.47619048 7 5.47619048 7 8 C9.31 8.33 11.62 8.66 14 9 C14.33 9.99 14.66 10.98 15 12 C15.99 12.33 16.98 12.66 18 13 C17.67 14.32 17.34 15.64 17 17 C14.69 16.34 12.38 15.68 10 15 C10.33 13.68 10.66 12.36 11 11 C10.29875 10.814375 9.5975 10.62875 8.875 10.4375 C4.95864972 8.47932486 2.4661136 5.59323769 0 2 C0 1.34 0 0.68 0 0 Z " fill="#DEC582" transform="translate(94,358)"/>
<path d="M0 0 C0.33 0.66 0.66 1.32 1 2 C0.01 3.485 0.01 3.485 -1 5 C-2.32 5 -3.64 5 -5 5 C-5.2582959 5.58426758 -5.5165918 6.16853516 -5.78271484 6.77050781 C-7.09673136 9.17716622 -8.52480015 10.75319337 -10.4765625 12.671875 C-11.48203125 13.66767578 -11.48203125 13.66767578 -12.5078125 14.68359375 C-13.20648438 15.36550781 -13.90515625 16.04742187 -14.625 16.75 C-15.33140625 17.44738281 -16.0378125 18.14476562 -16.765625 18.86328125 C-18.50598703 20.58012488 -20.25084981 22.29211832 -22 24 C-22.99 23.67 -23.98 23.34 -25 23 C-23.29101326 21.29101326 -21.58180096 19.58226514 -19.87109375 17.875 C-18.36286273 16.36362028 -16.86694052 14.83996291 -15.375 13.3125 C-13.02747026 11.02674736 -10.55670232 9.04536186 -8 7 C-6.700625 5.700625 -6.700625 5.700625 -5.375 4.375 C-3 2 -3 2 0 0 Z " fill="#FCF4E0" transform="translate(245,440)"/>
<path d="M0 0 C0.66 0.33 1.32 0.66 2 1 C1.6390625 1.58265625 1.278125 2.1653125 0.90625 2.765625 C-2.94540689 9.57021883 -4.15416859 15.22723633 -3 23 C-2.12634835 25.76343891 -1.1133289 28.3228566 0.125 30.94140625 C1 33 1 33 1 36 C-3.0087625 32.52573917 -4.65059789 29.2549159 -5.22119141 23.93945312 C-5.3400317 21.64355976 -5.37118447 19.36135507 -5.375 17.0625 C-5.39949219 16.28970703 -5.42398438 15.51691406 -5.44921875 14.72070312 C-5.47823698 8.99927558 -4.2195931 5.7307048 -1 1 C-0.67 0.67 -0.34 0.34 0 0 Z " fill="#FEF8E4" transform="translate(94,327)"/>
<path d="M0 0 C1.24546405 2.49092811 0.7767578 3.41080733 0 6 C-0.66 6 -1.32 6 -2 6 C-1.67 7.98 -1.34 9.96 -1 12 C-0.21625 12.0825 0.5675 12.165 1.375 12.25 C4 13 4 13 5.3125 15.0625 C5.539375 15.701875 5.76625 16.34125 6 17 C6.66 17 7.32 17 8 17 C8.33 17.99 8.66 18.98 9 20 C6.00745382 18.59808647 3.4045389 16.96632511 0.75 15 C0.04359375 14.484375 -0.6628125 13.96875 -1.390625 13.4375 C-2.18726563 12.7259375 -2.18726563 12.7259375 -3 12 C-3 11.34 -3 10.68 -3 10 C-3.99 9.67 -4.98 9.34 -6 9 C-5.52797514 4.75177626 -3.03344482 2.80010291 0 0 Z " fill="#DFC389" transform="translate(267,430)"/>
<path d="M0 0 C3.63 0 7.26 0 11 0 C11 6.6 11 13.2 11 20 C7.484375 20.35807292 3.96875 20.71614583 0.453125 21.07421875 C-3.62618972 22.16788118 -4.76353032 23.50410422 -7 27 C-6.67 24.69 -6.34 22.38 -6 20 C-0.78531031 18.39255925 4.59904037 18.94129392 10 19 C10 13.06 10 7.12 10 1 C6.7 1 3.4 1 0 1 C0 0.67 0 0.34 0 0 Z " fill="#D5BF82" transform="translate(125,359)"/>
<path d="M0 0 C0.99 0 1.98 0 3 0 C3 2.64 3 5.28 3 8 C2.67 7.34 2.34 6.68 2 6 C1.34 6 0.68 6 0 6 C-0.04898437 6.71027344 -0.09796875 7.42054688 -0.1484375 8.15234375 C-0.22320312 9.07144531 -0.29796875 9.99054688 -0.375 10.9375 C-0.44460938 11.85402344 -0.51421875 12.77054687 -0.5859375 13.71484375 C-0.72257812 14.46894531 -0.85921875 15.22304688 -1 16 C-1.66 16.33 -2.32 16.66 -3 17 C-3.185625 15.6078125 -3.185625 15.6078125 -3.375 14.1875 C-3.81533082 10.86074765 -3.81533082 10.86074765 -6 8 C-6 6 -6 6 -3.5625 3.4375 C-2.716875 2.633125 -1.87125 1.82875 -1 1 C-0.67 0.67 -0.34 0.34 0 0 Z " fill="#D9BB63" transform="translate(371,367)"/>
<path d="M0 0 C4.51290803 3.33562767 6.68206814 5.33289301 8 11 C6.68 10.67 5.36 10.34 4 10 C4.33 11.32 4.66 12.64 5 14 C2.37252056 11.6227567 0.81390092 9.02316819 -1 6 C-2.58245275 4.24850835 -2.58245275 4.24850835 -4 3 C-3.01 2.67 -2.02 2.34 -1 2 C-0.67 1.34 -0.34 0.68 0 0 Z " fill="#FBF6E3" transform="translate(351,355)"/>
<path d="M0 0 C1.32 0.66 2.64 1.32 4 2 C4 9.92 4 17.84 4 26 C-3 20 -3 20 -6 17 C-3.75 16.3125 -3.75 16.3125 -1 16 C1.171875 17.48046875 1.171875 17.48046875 3 19 C2.88573491 16.58239124 2.75900339 14.16652782 2.625 11.75 C2.5940625 11.06808594 2.563125 10.38617188 2.53125 9.68359375 C2.31740626 6.01260962 1.98922945 3.13748384 0 0 Z " fill="#D7BF7B" transform="translate(132,321)"/>
<path d="M0 0 C0.66 0.66 1.32 1.32 2 2 C1.13375 2.50660156 1.13375 2.50660156 0.25 3.0234375 C-0.4925 3.46945312 -1.235 3.91546875 -2 4.375 C-3.11375 5.03628906 -3.11375 5.03628906 -4.25 5.7109375 C-4.8275 6.13632812 -5.405 6.56171875 -6 7 C-6 7.66 -6 8.32 -6 9 C-12.43028541 10.32388229 -18.4294834 11.24794402 -25 11 C-25 10.67 -25 10.34 -25 10 C-24.154375 9.74605469 -23.30875 9.49210937 -22.4375 9.23046875 C-10.48093595 6.12714433 -10.48093595 6.12714433 0 0 Z " fill="#DCC180" transform="translate(338,451)"/>
<path d="M0 0 C1.12417519 3.29958114 0.92840124 4.93321939 -0.51171875 8.08203125 C-0.85783203 8.84966797 -1.20394531 9.61730469 -1.56054688 10.40820312 C-1.93244141 11.20162109 -2.30433594 11.99503906 -2.6875 12.8125 C-3.21633789 13.98522461 -3.21633789 13.98522461 -3.75585938 15.18164062 C-5.93317486 19.9462597 -8.33351509 24.49165418 -11 29 C-11.33 27.68 -11.66 26.36 -12 25 C-11.34 25 -10.68 25 -10 25 C-9.67 23.02 -9.34 21.04 -9 19 C-8.34 19 -7.68 19 -7 19 C-6.89816406 18.15179688 -6.79632813 17.30359375 -6.69140625 16.4296875 C-5.92681493 12.63696899 -4.6084567 9.60912247 -2.9375 6.125 C-2.38964844 4.97257812 -1.84179688 3.82015625 -1.27734375 2.6328125 C-0.85582031 1.76398438 -0.43429687 0.89515625 0 0 Z " fill="#DCC684" transform="translate(377,412)"/>
<path d="M0 0 C6.20659801 9.30989701 6.00808848 27.29019478 4 38 C3.67 38 3.34 38 3 38 C2.98018066 37.37544922 2.96036133 36.75089844 2.93994141 36.10742188 C2.84383068 33.23790619 2.73450513 30.36903453 2.625 27.5 C2.5940625 26.51773437 2.563125 25.53546875 2.53125 24.5234375 C2.29854329 18.70576981 1.52539202 13.60950613 0 8 C-0.20992436 5.27938032 -0.09771582 2.736043 0 0 Z " fill="#D8C090" transform="translate(375,370)"/>
<path d="M0 0 C0.33 0.99 0.66 1.98 1 3 C0.38125 3.2475 -0.2375 3.495 -0.875 3.75 C-3.43113492 5.25360877 -3.70116365 6.39277702 -5 9 C-9.32249112 14.11689489 -14.56111832 18.14333844 -20 22 C-20.33 21.34 -20.66 20.68 -21 20 C-20.34 20 -19.68 20 -19 20 C-19 19.34 -19 18.68 -19 18 C-17.63671875 16.66015625 -17.63671875 16.66015625 -15.6875 15.0625 C-10.13853658 10.36032633 -5.09624567 5.18055856 0 0 Z " fill="#FEF7E7" transform="translate(307,380)"/>
<path d="M0 0 C1.32 0.33 2.64 0.66 4 1 C1.02484693 4.00400358 -1.95577407 7.00252155 -4.9375 10 C-6.21270508 11.28777344 -6.21270508 11.28777344 -7.51367188 12.6015625 C-8.32255859 13.41367187 -9.13144531 14.22578125 -9.96484375 15.0625 C-10.7137085 15.81660156 -11.46257324 16.57070313 -12.23413086 17.34765625 C-14 19 -14 19 -15 19 C-15.25 16.6875 -15.25 16.6875 -15 14 C-13 12.1875 -13 12.1875 -11 11 C-10.34 11.33 -9.68 11.66 -9 12 C-8.67 11.01 -8.34 10.02 -8 9 C-6.35360035 7.64172029 -4.68704193 6.30745749 -3 5 C-2.67 4.34 -2.34 3.68 -2 3 C-1.34 3 -0.68 3 0 3 C0 2.01 0 1.02 0 0 Z " fill="#DAC47D" transform="translate(339,345)"/>
<path d="M0 0 C0.33 0 0.66 0 1 0 C1 14.85 1 29.7 1 45 C0.67 45 0.34 45 0 45 C-0.02505615 43.90010742 -0.0501123 42.80021484 -0.07592773 41.66699219 C-0.17018206 37.58175235 -0.27035865 33.49667539 -0.37231445 29.41162109 C-0.41559514 27.64440728 -0.45727505 25.8771535 -0.49731445 24.10986328 C-0.55518351 21.5679114 -0.61882981 19.02615941 -0.68359375 16.484375 C-0.70030624 15.69569031 -0.71701874 14.90700562 -0.73423767 14.09442139 C-0.82053333 9.95441862 -0.82053333 9.95441862 -1.57142639 5.89996338 C-2.14803917 3.343709 -1.3257194 2.18353784 0 0 Z " fill="#E1E1E1" transform="translate(427,387)"/>
<path d="M0 0 C4.35011775 0.51177856 7.97565677 1.30553969 12 3 C12.804375 3.144375 13.60875 3.28875 14.4375 3.4375 C17.59736701 4.13112934 20.15810409 5.47991614 23 7 C23 7.33 23 7.66 23 8 C14.30742325 7.96075586 7.64967323 4.92075728 0 1 C0 0.67 0 0.34 0 0 Z " fill="#DBC57D" transform="translate(265,463)"/>
<path d="M0 0 C0.99 0.33 1.98 0.66 3 1 C2.195625 1.763125 1.39125 2.52625 0.5625 3.3125 C-3.73494541 7.81957689 -3.26311176 12.10164359 -3.234375 18.04296875 C-2.95354615 21.58609278 -1.88917424 24.00880746 0 27 C0 27.66 0 28.32 0 29 C-0.99 28.67 -1.98 28.34 -3 28 C-6.01380266 21.21642411 -6.18204755 12.74344244 -4.39453125 5.5703125 C-3.31751553 2.9351776 -2.60038073 1.30019037 0 0 Z " fill="#FCF6DF" transform="translate(194,367)"/>
<path d="M0 0 C0 3.36403475 -0.61880053 4.40092917 -2.375 7.1875 C-3.03628906 8.26064453 -3.03628906 8.26064453 -3.7109375 9.35546875 C-4.13632812 9.89816406 -4.56171875 10.44085938 -5 11 C-5.66 11 -6.32 11 -7 11 C-7.2475 11.5775 -7.495 12.155 -7.75 12.75 C-9.16683317 15.3002997 -10.87627537 17.01785701 -13 19 C-13.66 18.67 -14.32 18.34 -15 18 C-14.16855469 17.03578125 -13.33710938 16.0715625 -12.48046875 15.078125 C-11.38274647 13.80214013 -10.28509388 12.52609531 -9.1875 11.25 C-8.64029297 10.61578125 -8.09308594 9.9815625 -7.52929688 9.328125 C-4.91608821 6.28730038 -2.3441871 3.25718629 0 0 Z " fill="#DBC689" transform="translate(338,317)"/>
<path d="M0 0 C0.33 0 0.66 0 1 0 C1 5.28 1 10.56 1 16 C1.99 16.33 2.98 16.66 4 17 C4.33 19.64 4.66 22.28 5 25 C1.54226721 23.27113361 1.04822259 19.49519767 -0.17578125 15.99609375 C-1.69487402 10.47408354 -1.51014589 5.48809116 0 0 Z " fill="#DAC48E" transform="translate(96,383)"/>
<path d="M0 0 C0.62922185 1.88766556 1.23668024 3.78286539 1.8125 5.6875 C3.02310498 9.06445074 4.54879653 12.04325032 6.29296875 15.16796875 C7 17 7 17 6 20 C5.61328125 19.25234375 5.2265625 18.5046875 4.828125 17.734375 C4.30734375 16.74953125 3.7865625 15.7646875 3.25 14.75 C2.73953125 13.77546875 2.2290625 12.8009375 1.703125 11.796875 C0.05180119 9.08506801 -1.66491299 7.13203597 -4 5 C-2.25 1.125 -2.25 1.125 0 0 Z " fill="#D5BE7D" transform="translate(355,350)"/>
<path d="M0 0 C-0.33 1.32 -0.66 2.64 -1 4 C-1.66 4 -2.32 4 -3 4 C-3 4.66 -3 5.32 -3 6 C-3.99 6 -4.98 6 -6 6 C-6.66 10.95 -7.32 15.9 -8 21 C-8.33 21 -8.66 21 -9 21 C-9.08160748 19.10489301 -9.13946459 17.20875496 -9.1875 15.3125 C-9.22230469 14.25675781 -9.25710937 13.20101563 -9.29296875 12.11328125 C-8.85711082 7.48156431 -5.39259434 0 0 0 Z " fill="#DCC78A" transform="translate(199,367)"/>
<path d="M0 0 C0.33 0.66 0.66 1.32 1 2 C-1.97519337 6.69165109 -5.31393365 10.84703191 -9 15 C-10.32 14.67 -11.64 14.34 -13 14 C-12.34 13.360625 -11.68 12.72125 -11 12.0625 C-7.14346256 8.2170765 -3.59166578 4.09075581 0 0 Z " fill="#FBF6DF" transform="translate(365,441)"/>
<path d="M0 0 C0.66 0.66 1.32 1.32 2 2 C0.89847594 3.43952597 -0.2063304 4.87654071 -1.3125 6.3125 C-1.92738281 7.11300781 -2.54226563 7.91351563 -3.17578125 8.73828125 C-5.76897405 11.95339609 -8.47997172 14.79998232 -12 17 C-12.99 16.67 -13.98 16.34 -15 16 C-14.28972656 15.37351562 -13.57945312 14.74703125 -12.84765625 14.1015625 C-11.46900391 12.87566406 -11.46900391 12.87566406 -10.0625 11.625 C-9.14597656 10.81289063 -8.22945313 10.00078125 -7.28515625 9.1640625 C-4.96398605 7.21290653 -4.96398605 7.21290653 -4 5 C-3.34 5 -2.68 5 -2 5 C-1.34 3.35 -0.68 1.7 0 0 Z " fill="#DBC180" transform="translate(355,434)"/>
<path d="M0 0 C5.51668443 -0.25075838 5.51668443 -0.25075838 7.91894531 0.99560547 C10.32194789 2.15538405 11.89323342 2.23117252 14.546875 2.1953125 C15.39121094 2.18886719 16.23554687 2.18242187 17.10546875 2.17578125 C18.41451172 2.15064453 18.41451172 2.15064453 19.75 2.125 C20.63816406 2.11597656 21.52632812 2.10695313 22.44140625 2.09765625 C24.62788058 2.07414577 26.81380094 2.04128499 29 2 C25.24305796 4.50462803 22.22851568 4.34245002 17.875 4.3125 C17.11324463 4.31121094 16.35148926 4.30992187 15.56665039 4.30859375 C9.85860904 4.21119729 5.26972392 3.29951589 0 1 C0 0.67 0 0.34 0 0 Z " fill="#DCC894" transform="translate(111,416)"/>
<path d="M0 0 C2.9375 0.8125 2.9375 0.8125 6 2 C6.33 2.99 6.66 3.98 7 5 C7.66 5 8.32 5 9 5 C9 5.66 9 6.32 9 7 C9.99 7 10.98 7 12 7 C12.33 8.98 12.66 10.96 13 13 C10 12 10 12 9.0703125 10.16796875 C8.71710938 9.45253906 8.36390625 8.73710937 8 8 C6.06462777 6.07288056 6.06462777 6.07288056 3.875 4.3125 C2.56804553 3.226472 1.27185873 2.12692599 0 1 C0 0.67 0 0.34 0 0 Z " fill="#DBC387" transform="translate(337,294)"/>
<path d="M0 0 C0.33 0 0.66 0 1 0 C1 9.24 1 18.48 1 28 C-0.32 27.67 -1.64 27.34 -3 27 C-2.67854004 26.45182617 -2.35708008 25.90365234 -2.02587891 25.33886719 C-0.83099217 22.61468467 -0.68485993 20.5457978 -0.5859375 17.578125 C-0.54726563 16.55332031 -0.50859375 15.52851563 -0.46875 14.47265625 C-0.4378125 13.40917969 -0.406875 12.34570312 -0.375 11.25 C-0.33632813 10.17105469 -0.29765625 9.09210938 -0.2578125 7.98046875 C-0.16365369 5.32048225 -0.07802613 2.6605006 0 0 Z " fill="#D5C081" transform="translate(283,425)"/>
<path d="M0 0 C0.8971875 0.309375 0.8971875 0.309375 1.8125 0.625 C0.52284824 2.00062854 -0.81439293 3.33266393 -2.1875 4.625 C-2.8475 4.625 -3.5075 4.625 -4.1875 4.625 C-4.47625 5.264375 -4.765 5.90375 -5.0625 6.5625 C-6.1875 8.625 -6.1875 8.625 -8.1875 9.625 C-8.1875 7.315 -8.1875 5.005 -8.1875 2.625 C-7.1975 2.955 -6.2075 3.285 -5.1875 3.625 C-5.1875 2.965 -5.1875 2.305 -5.1875 1.625 C-2.1875 -0.375 -2.1875 -0.375 0 0 Z " fill="#DDC381" transform="translate(258.1875,425.375)"/>
<path d="M0 0 C1.7109375 1.5234375 1.7109375 1.5234375 3 3 C2.26394531 2.94199219 1.52789062 2.88398438 0.76953125 2.82421875 C-4.75907941 2.38447014 -4.75907941 2.38447014 -9.84375 4.11328125 C-11.35673892 5.60903828 -11.35673892 5.60903828 -13 8 C-12.7323244 4.69866765 -12.4396165 3.37496702 -9.875 1.1875 C-6.32461082 -0.27896509 -3.80844784 -0.42316087 0 0 Z " fill="#FBF1D5" transform="translate(126,338)"/>
<path d="M0 0 C0.66 0.33 1.32 0.66 2 1 C1.67 10.24 1.34 19.48 1 29 C0.67 29 0.34 29 0 29 C-0.16764279 24.89587259 -0.3339474 20.79169203 -0.5 16.6875 C-0.54769531 15.52025391 -0.59539062 14.35300781 -0.64453125 13.15039062 C-0.68964844 12.03212891 -0.73476563 10.91386719 -0.78125 9.76171875 C-0.82314453 8.73006592 -0.86503906 7.69841309 -0.90820312 6.63549805 C-0.97360204 4.75788811 -1 2.87874855 -1 1 C-0.67 0.67 -0.34 0.34 0 0 Z " fill="#DFC670" transform="translate(282,419)"/>
<path d="M0 0 C0.33 0 0.66 0 1 0 C1 8.25 1 16.5 1 25 C-1.475 24.01 -1.475 24.01 -4 23 C-3.67 21.68 -3.34 20.36 -3 19 C-2.34 19.99 -1.68 20.98 -1 22 C-0.67 14.74 -0.34 7.48 0 0 Z " fill="#F4E7CB" transform="translate(136,324)"/>
<path d="M0 0 C0.89203125 0.00902344 1.7840625 0.01804687 2.703125 0.02734375 C3.37859375 0.03894531 4.0540625 0.05054688 4.75 0.0625 C4.75 1.3825 4.75 2.7025 4.75 4.0625 C4.09 4.0625 3.43 4.0625 2.75 4.0625 C2.75 3.4025 2.75 2.7425 2.75 2.0625 C-1.87 2.7225 -6.49 3.3825 -11.25 4.0625 C-9.25 1.0625 -9.25 1.0625 -7.453125 0.37890625 C-4.93805939 0.01770002 -2.54041065 -0.03342646 0 0 Z " fill="#FDF7DB" transform="translate(131.25,378.9375)"/>
<path d="M0 0 C0.33 1.32 0.66 2.64 1 4 C0.01 4.33 -0.98 4.66 -2 5 C-2.268125 5.639375 -2.53625 6.27875 -2.8125 6.9375 C-4 9 -4 9 -7.125 10.25 C-8.07375 10.4975 -9.0225 10.745 -10 11 C-6.79239749 7.19364503 -3.59253891 3.45436433 0 0 Z " fill="#DAC585" transform="translate(297,402)"/>
<path d="M0 0 C0.99 0.66 1.98 1.32 3 2 C1.35718838 3.66964521 -0.28932761 5.3356464 -1.9375 7 C-3.31228516 8.3921875 -3.31228516 8.3921875 -4.71484375 9.8125 C-7 12 -7 12 -8 12 C-8 10.35 -8 8.7 -8 7 C-5.99967627 5.99983813 -4.16874252 5.50603992 -2 5 C-2 4.01 -2 3.02 -2 2 C-1.34 2 -0.68 2 0 2 C0 1.34 0 0.68 0 0 Z " fill="#D9C27F" transform="translate(283,399)"/>
<path d="M0 0 C0.66 0.33 1.32 0.66 2 1 C0.75 3.4375 0.75 3.4375 -2 6 C-5.99197545 6.75380387 -9.94328377 6.92983667 -14 7 C-11.19665157 5.13110105 -8.48722906 3.72975092 -5.4375 2.3125 C-4.46683594 1.85488281 -3.49617188 1.39726562 -2.49609375 0.92578125 C-1.67238281 0.62027344 -0.84867187 0.31476563 0 0 Z " fill="#F8F1D4" transform="translate(343,462)"/>
<path d="M0 0 C0.66 0.99 1.32 1.98 2 3 C0.23669281 4.5088401 -1.53590397 6.0068298 -3.3125 7.5 C-4.29863281 8.3353125 -5.28476562 9.170625 -6.30078125 10.03125 C-9 12 -9 12 -12 12 C-8.04 8.04 -4.08 4.08 0 0 Z " fill="#FDF6E2" transform="translate(285,401)"/>
<path d="M0 0 C0.66 0.33 1.32 0.66 2 1 C1.63030147 3.65614176 1.29524408 4.74758254 -0.77734375 6.51953125 C-1.49019531 6.94621094 -2.20304687 7.37289063 -2.9375 7.8125 C-3.64777344 8.25207031 -4.35804688 8.69164062 -5.08984375 9.14453125 C-6.03537109 9.56798828 -6.03537109 9.56798828 -7 10 C-7.66 9.67 -8.32 9.34 -9 9 C-8.43410156 8.51789063 -7.86820312 8.03578125 -7.28515625 7.5390625 C-6.55167969 6.90742188 -5.81820313 6.27578125 -5.0625 5.625 C-4.33160156 4.99851562 -3.60070312 4.37203125 -2.84765625 3.7265625 C-0.91619094 2.12252286 -0.91619094 2.12252286 0 0 Z " fill="#DEC88B" transform="translate(318,382)"/>
<path d="M0 0 C0.33 0.99 0.66 1.98 1 3 C0.67 3.66 0.34 4.32 0 5 C-0.99 5 -1.98 5 -3 5 C-3.33 5.99 -3.66 6.98 -4 8 C-5.95597184 9.39712274 -7.95436401 10.73779907 -10 12 C-10.66 11.67 -11.32 11.34 -12 11 C-11.30132812 10.37351562 -10.60265625 9.74703125 -9.8828125 9.1015625 C-8.97273438 8.28429687 -8.06265625 7.46703125 -7.125 6.625 C-5.76761719 5.40683594 -5.76761719 5.40683594 -4.3828125 4.1640625 C-2.89103817 2.80923795 -1.42494565 1.42494565 0 0 Z " fill="#DCC78D" transform="translate(280,418)"/>
<path d="M0 0 C0.33 7.59 0.66 15.18 1 23 C0.34 23 -0.32 23 -1 23 C-1.01458252 22.43490723 -1.02916504 21.86981445 -1.04418945 21.28759766 C-1.11856058 18.73269981 -1.21525242 16.17912502 -1.3125 13.625 C-1.33505859 12.73554688 -1.35761719 11.84609375 -1.38085938 10.9296875 C-1.41630859 10.07890625 -1.45175781 9.228125 -1.48828125 8.3515625 C-1.51446533 7.56604004 -1.54064941 6.78051758 -1.56762695 5.97119141 C-1.84889597 3.59959844 -1.84889597 3.59959844 -5 2 C-2 0 -2 0 0 0 Z " fill="#FDF9E7" transform="translate(154,412)"/>
<path d="M0 0 C4 3 8 6 12 9 C9.03 8.67 6.06 8.34 3 8 C3 7.01 3 6.02 3 5 C2.34 5 1.68 5 1 5 C0.67 3.35 0.34 1.7 0 0 Z " fill="#FAF2DA" transform="translate(194,396)"/>
<path d="M0 0 C0.33 1.32 0.66 2.64 1 4 C0.01 4.66 -0.98 5.32 -2 6 C-2.72382467 8.05925139 -2.72382467 8.05925139 -3 10 C-3.66 10 -4.32 10 -5 10 C-5.33 10.99 -5.66 11.98 -6 13 C-8.5625 14.6875 -8.5625 14.6875 -11 16 C-9.54453498 12.60391496 -7.59139701 10.59139701 -5 8 C-3.76487921 5.86690808 -3.76487921 5.86690808 -3 4 C-2.34 4 -1.68 4 -1 4 C-0.67 2.68 -0.34 1.36 0 0 Z " fill="#DDCA90" transform="translate(281,384)"/>
<path d="M0 0 C0 0.66 0 1.32 0 2 C-0.66 2 -1.32 2 -2 2 C-2 2.66 -2 3.32 -2 4 C-8.435 4.495 -8.435 4.495 -15 5 C-12.56158876 2.56158876 -10.81433885 2.23847249 -7.5 1.375 C-6.5203125 1.11460937 -5.540625 0.85421875 -4.53125 0.5859375 C-2 0 -2 0 0 0 Z " fill="#D7BE80" transform="translate(383,280)"/>
<path d="M0 0 C0.33 0.99 0.66 1.98 1 3 C-0.43359375 5.69921875 -0.43359375 5.69921875 -2.4375 8.6875 C-3.42556641 10.17830078 -3.42556641 10.17830078 -4.43359375 11.69921875 C-5.20896484 12.83810547 -5.20896484 12.83810547 -6 14 C-6.33 12.68 -6.66 11.36 -7 10 C-6.34 10 -5.68 10 -5 10 C-5 8.68 -5 7.36 -5 6 C-4.34 6 -3.68 6 -3 6 C-2.67 4.68 -2.34 3.36 -2 2 C-1.34 2 -0.68 2 0 2 C0 1.34 0 0.68 0 0 Z " fill="#DCC686" transform="translate(356,421)"/>
<path d="M0 0 C2 2 2 2 2 5 C-0.74545456 8.05050507 -3.6462327 10.63994153 -7 13 C-6.56880859 12.13955078 -6.56880859 12.13955078 -6.12890625 11.26171875 C-5.4033435 9.80808264 -4.68165677 8.35250187 -3.96484375 6.89453125 C-3.62582031 6.20746094 -3.28679687 5.52039063 -2.9375 4.8125 C-2.59589844 4.11769531 -2.25429688 3.42289062 -1.90234375 2.70703125 C-1 1 -1 1 0 0 Z " fill="#DCC278" transform="translate(322,336)"/>
<path d="M0 0 C0.99 0.33 1.98 0.66 3 1 C-0.81234923 4.3502463 -4.33285711 6.16974789 -9 8 C-8.67 7.01 -8.34 6.02 -8 5 C-7.34 5 -6.68 5 -6 5 C-5.67 4.01 -5.34 3.02 -5 2 C-3.35 2 -1.7 2 0 2 C0 1.34 0 0.68 0 0 Z " fill="#D9C17F" transform="translate(345,458)"/>
<path d="M0 0 C0.33 0 0.66 0 1 0 C0.67 2.97 0.34 5.94 0 9 C-0.66 9 -1.32 9 -2 9 C-2.33 9.99 -2.66 10.98 -3 12 C-3.66 12 -4.32 12 -5 12 C-3.68938409 7.76570244 -2.05643741 3.92592596 0 0 Z " fill="#FBF5DB" transform="translate(372,428)"/>
<path d="M0 0 C-5.00932754 3.00559652 -8.32723489 3.29341888 -14 3 C-14.33 3.66 -14.66 4.32 -15 5 C-15.33 4.01 -15.66 3.02 -16 2 C-13.89829344 1.46932659 -11.79352402 0.95077143 -9.6875 0.4375 C-7.92986328 0.00244141 -7.92986328 0.00244141 -6.13671875 -0.44140625 C-3 -1 -3 -1 0 0 Z " fill="#D2BE82" transform="translate(351,289)"/>
<path d="M0 0 C0.88751953 0.39832031 0.88751953 0.39832031 1.79296875 0.8046875 C5.8349177 2.61136615 9.8699437 4.40126853 14 6 C9.98287028 7.60685189 6.93957783 6.43257376 3 5 C1.0625 3.5 1.0625 3.5 0 2 C0 1.34 0 0.68 0 0 Z " fill="#FDF8E0" transform="translate(264,463)"/>
<path d="M0 0 C1.32 0 2.64 0 4 0 C4 0.66 4 1.32 4 2 C4.61875 2.268125 5.2375 2.53625 5.875 2.8125 C8 4 8 4 10 7 C9.01 7.495 9.01 7.495 8 8 C6.66372225 6.85760183 5.33104612 5.71098945 4 4.5625 C3.2575 3.92441406 2.515 3.28632813 1.75 2.62890625 C1.1725 2.09136719 0.595 1.55382812 0 1 C0 0.67 0 0.34 0 0 Z " fill="#DAC486" transform="translate(101,408)"/>
<path d="M0 0 C2.27474277 3.41211416 2.56629644 5.6568529 3.125 9.6875 C3.29257812 10.86699219 3.46015625 12.04648437 3.6328125 13.26171875 C3.75398438 14.16535156 3.87515625 15.06898438 4 16 C3.34 16 2.68 16 2 16 C0.40837921 10.42932723 -0.20674944 5.78898419 0 0 Z " fill="#E0CC93" transform="translate(375,370)"/>
<path d="M0 0 C2 0 2 0 3.47265625 1.42578125 C4.25962891 2.35970703 4.25962891 2.35970703 5.0625 3.3125 C5.58972656 3.92738281 6.11695313 4.54226563 6.66015625 5.17578125 C8 7 8 7 9 10 C8.01 10 7.02 10 6 10 C5.690625 8.824375 5.690625 8.824375 5.375 7.625 C4.19323388 4.69083714 4.19323388 4.69083714 0.875 3.6875 C-0.07375 3.460625 -1.0225 3.23375 -2 3 C-1.34 2.01 -0.68 1.02 0 0 Z " fill="#DDCA91" transform="translate(345,357)"/>
<path d="M0 0 C3.57104439 1.87949705 5.54744301 3.17053157 7 7 C5.35 8.65 3.7 10.3 2 12 C2.165 11.236875 2.33 10.47375 2.5 9.6875 C3.09145396 6.96403764 3.09145396 6.96403764 3 4 C2.01 3.67 1.02 3.34 0 3 C0 2.01 0 1.02 0 0 Z " fill="#FDF7DF" transform="translate(341,299)"/>
<path d="M0 0 C0.66 0.33 1.32 0.66 2 1 C1.67 1.99 1.34 2.98 1 4 C-1.0625 4.6875 -1.0625 4.6875 -3 5 C-3 6.65 -3 8.3 -3 10 C-3.99 10 -4.98 10 -6 10 C-4.79157144 5.56909529 -3.48331435 3.01887244 0 0 Z " fill="#DBC589" transform="translate(103,373)"/>
<path d="M0 0 C0.33 0.99 0.66 1.98 1 3 C-1.31 5.31 -3.62 7.62 -6 10 C-6.99 9.67 -7.98 9.34 -9 9 C-6.03 6.03 -3.06 3.06 0 0 Z " fill="#FDF4E6" transform="translate(363,326)"/>
<path d="M0 0 C1.98 0.495 1.98 0.495 4 1 C3.01 1.99 2.02 2.98 1 4 C1.33 4.99 1.66 5.98 2 7 C2.66 7.33 3.32 7.66 4 8 C4 8.66 4 9.32 4 10 C4.99 10.33 5.98 10.66 7 11 C6.01 11.495 6.01 11.495 5 12 C4.34 11.67 3.68 11.34 3 11 C3 10.34 3 9.68 3 9 C1.68 8.34 0.36 7.68 -1 7 C-0.67 4.69 -0.34 2.38 0 0 Z " fill="#FDF8DF" transform="translate(248,445)"/>
<path d="M0 0 C0.99 0.66 1.98 1.32 3 2 C4.98799818 2.70164642 6.98698517 3.37372872 9 4 C9 4.33 9 4.66 9 5 C5.37 5 1.74 5 -2 5 C-2 4.34 -2 3.68 -2 3 C-1.34 3 -0.68 3 0 3 C0 2.01 0 1.02 0 0 Z " fill="#131313" transform="translate(493,427)"/>
<path d="M0 0 C1.65 0 3.3 0 5 0 C4.67 1.65 4.34 3.3 4 5 C1.69 5 -0.62 5 -3 5 C-3.33 4.34 -3.66 3.68 -4 3 C-2.68 3 -1.36 3 0 3 C0 2.01 0 1.02 0 0 Z " fill="#111111" transform="translate(665,427)"/>
<path d="M0 0 C-1.2065625 0.4640625 -1.2065625 0.4640625 -2.4375 0.9375 C-5.16111606 2.70576915 -5.16111606 2.70576915 -5.5546875 5.203125 C-5.79037673 7.47431216 -5.94736564 9.71758269 -6 12 C-6.33 12 -6.66 12 -7 12 C-7.19477739 10.37585622 -7.38059458 8.75063577 -7.5625 7.125 C-7.66691406 6.22007812 -7.77132812 5.31515625 -7.87890625 4.3828125 C-8 2 -8 2 -7 0 C-3.86650268 -1.04449911 -3.01031744 -0.93423645 0 0 Z " fill="#DDC28A" transform="translate(119,339)"/>
<path d="M0 0 C5.61 0 11.22 0 17 0 C17 0.33 17 0.66 17 1 C16.03578125 1.04898437 15.0715625 1.09796875 14.078125 1.1484375 C12.81484375 1.22320312 11.5515625 1.29796875 10.25 1.375 C8.37054688 1.47941406 8.37054688 1.47941406 6.453125 1.5859375 C3.39001879 1.95323304 1.58025734 2.39711286 -1 4 C-0.67 2.68 -0.34 1.36 0 0 Z " fill="#FEFBE9" transform="translate(106,315)"/>
<path d="M0 0 C-2.52480693 2.52480693 -4.13823034 2.55738633 -7.625 3.125 C-8.62789063 3.29257812 -9.63078125 3.46015625 -10.6640625 3.6328125 C-11.43492187 3.75398438 -12.20578125 3.87515625 -13 4 C-13 3.34 -13 2.68 -13 2 C-8.49646738 0.24252386 -4.82360189 -0.19294408 0 0 Z " fill="#FCF7DE" transform="translate(350,287)"/>
<path d="M0 0 C2.375 0.25 2.375 0.25 5 1 C6.3125 3.0625 6.3125 3.0625 7 5 C7.66 5 8.32 5 9 5 C9.33 5.99 9.66 6.98 10 8 C6.05205855 6.32971708 3.18203882 3.8204435 0 1 C0 0.67 0 0.34 0 0 Z " fill="#DBC17E" transform="translate(266,442)"/>
<path d="M0 0 C0.99 0 1.98 0 3 0 C3 2 3 2 1.3203125 3.69140625 C0.59585937 4.30886719 -0.12859375 4.92632812 -0.875 5.5625 C-1.59429687 6.18253906 -2.31359375 6.80257813 -3.0546875 7.44140625 C-5 9 -5 9 -7 10 C-7 7 -7 7 -4.625 4.3125 C-2 2 -2 2 0 2 C0 1.34 0 0.68 0 0 Z " fill="#D7C27F" transform="translate(267,415)"/>
<path d="M0 0 C1.32 0.33 2.64 0.66 4 1 C1.69 3.31 -0.62 5.62 -3 8 C-3.33 6.68 -3.66 5.36 -4 4 C-2.3125 1.6875 -2.3125 1.6875 0 0 Z " fill="#DBC380" transform="translate(305,378)"/>
<path d="M0 0 C1 3 1 3 -0.125 5.6875 C-2 8 -2 8 -4.6875 8.3125 C-5.450625 8.209375 -6.21375 8.10625 -7 8 C-6.02133662 6.85373678 -5.04205413 5.70800212 -4.0625 4.5625 C-3.51722656 3.92441406 -2.97195313 3.28632813 -2.41015625 2.62890625 C-1.63204305 1.73008851 -0.84063472 0.84063472 0 0 Z " fill="#D9C180" transform="translate(342,360)"/>
<path d="M0 0 C1.55693206 2.33539809 2.90200646 4.57968756 4.1875 7.0625 C4.55230469 7.75472656 4.91710937 8.44695312 5.29296875 9.16015625 C5.52628906 9.76730469 5.75960937 10.37445313 6 11 C5.67 11.66 5.34 12.32 5 13 C2.53686261 11.17251097 1.16571382 9.77023784 0.51171875 6.73046875 C0.27481707 4.48520654 0.09638651 2.25544422 0 0 Z " fill="#FBF3D9" transform="translate(90,350)"/>
<path d="M0 0 C0.495 0.61875 0.99 1.2375 1.5 1.875 C4.88221437 4.74988222 7.67257085 5.13451417 12 6 C12 6.33 12 6.66 12 7 C8.7 7 5.4 7 2 7 C1.67 6.01 1.34 5.02 1 4 C0.34 3.34 -0.32 2.68 -1 2 C-0.67 1.34 -0.34 0.68 0 0 Z " fill="#DCC78A" transform="translate(113,352)"/>
<path d="M0 0 C0.33 0.99 0.66 1.98 1 3 C0.67 3.66 0.34 4.32 0 5 C-0.66 5 -1.32 5 -2 5 C-2 5.66 -2 6.32 -2 7 C-4 8.625 -4 8.625 -6 10 C-6.66 9.67 -7.32 9.34 -8 9 C-5.36 6.03 -2.72 3.06 0 0 Z " fill="#DEC58B" transform="translate(237,438)"/>
<path d="M0 0 C0.625 1.875 0.625 1.875 1 4 C-1 6 -1 6 -3.3828125 6.1953125 C-4.28773438 6.17210937 -5.19265625 6.14890625 -6.125 6.125 C-7.49011719 6.09792969 -7.49011719 6.09792969 -8.8828125 6.0703125 C-9.58148438 6.04710937 -10.28015625 6.02390625 -11 6 C-11 5.67 -11 5.34 -11 5 C-9.906875 4.855625 -8.81375 4.71125 -7.6875 4.5625 C-4.06877013 4.11711896 -4.06877013 4.11711896 -1 3 C-0.67 2.01 -0.34 1.02 0 0 Z " fill="#FAF2D6" transform="translate(217,400)"/>
<path d="M0 0 C1.09658936 3.28976808 0.79953138 4.71303767 0 8 C-1.32 7.67 -2.64 7.34 -4 7 C-2.92598892 4.08482708 -2.22189824 2.22189824 0 0 Z " fill="#DCC47B" transform="translate(286,379)"/>
<path d="M0 0 C0.66 0.33 1.32 0.66 2 1 C2 1.66 2 2.32 2 3 C-0.8125 5.6875 -0.8125 5.6875 -4 8 C-4.99 7.67 -5.98 7.34 -7 7 C-4.69 4.69 -2.38 2.38 0 0 Z " fill="#FAF2DF" transform="translate(315,372)"/>
<path d="M0 0 C0 3.65351863 -0.88942301 5.06026776 -3 8 C-5.1875 9.3125 -5.1875 9.3125 -7 10 C-7 7 -7 7 -5.46875 5.17578125 C-4.8190625 4.56089844 -4.169375 3.94601562 -3.5 3.3125 C-2.8503125 2.68988281 -2.200625 2.06726563 -1.53125 1.42578125 C-0.77328125 0.72001953 -0.77328125 0.72001953 0 0 Z " fill="#FDF9EA" transform="translate(213,470)"/>
<path d="M0 0 C1.32 0.33 2.64 0.66 4 1 C3.67 2.65 3.34 4.3 3 6 C2.01 6.33 1.02 6.66 0 7 C0 4.69 0 2.38 0 0 Z " fill="#DABD7A" transform="translate(345,431)"/>
<path d="M0 0 C0.66 0 1.32 0 2 0 C2 0.99 2 1.98 2 3 C3.65 3 5.3 3 7 3 C7 3.66 7 4.32 7 5 C4.36 5 1.72 5 -1 5 C-0.67 3.35 -0.34 1.7 0 0 Z " fill="#2C2C2C" transform="translate(451,427)"/>
<path d="M0 0 C0.33 1.98 0.66 3.96 1 6 C0.67 5.34 0.34 4.68 0 4 C-0.61875 4.185625 -1.2375 4.37125 -1.875 4.5625 C-4 5 -4 5 -6 4 C-5.67 3.01 -5.34 2.02 -5 1 C-3 0 -3 0 0 0 Z " fill="#121212" transform="translate(500,420)"/>
<path d="M0 0 C2.56687367 3.8503105 1.83288724 5.58569763 1 10 C0.01 10.33 -0.98 10.66 -2 11 C-1.34 7.37 -0.68 3.74 0 0 Z " fill="#DFC78F" transform="translate(365,409)"/>
<path d="M0 0 C1.32 0.33 2.64 0.66 4 1 C1.36 3.64 -1.28 6.28 -4 9 C-4.66 8.67 -5.32 8.34 -6 8 C-4.71937515 6.2925002 -3.38232443 4.62626404 -2 3 C-1.34 3 -0.68 3 0 3 C0 2.01 0 1.02 0 0 Z " fill="#D5BE77" transform="translate(339,345)"/>
<path d="M0 0 C0 0.99 0 1.98 0 3 C-3.3 3 -6.6 3 -10 3 C-10 2.34 -10 1.68 -10 1 C-2.25 0 -2.25 0 0 0 Z " fill="#DCCA8B" transform="translate(154,335)"/>
<path d="M0 0 C3.3 1.98 6.6 3.96 10 6 C8 7 8 7 5 6.375 C2 5 2 5 0 0 Z " fill="#D7C385" transform="translate(262,447)"/>
<path d="M0 0 C0.99 0 1.98 0 3 0 C2.67 2.31 2.34 4.62 2 7 C2.66 7.33 3.32 7.66 4 8 C3.01 8 2.02 8 1 8 C0.26919734 6.02253397 -0.39421747 4.01927511 -1 2 C-0.67 1.34 -0.34 0.68 0 0 Z " fill="#111113" transform="translate(673,400)"/>
<path d="M0 0 C0.99 0.33 1.98 0.66 3 1 C1.02 3.31 -0.96 5.62 -3 8 C-3.66 7.01 -4.32 6.02 -5 5 C-3.625 3.5 -3.625 3.5 -2 2 C-1.34 2 -0.68 2 0 2 C0 1.34 0 0.68 0 0 Z " fill="#FEF7E3" transform="translate(286,376)"/>
<path d="M0 0 C1.32 0.33 2.64 0.66 4 1 C2.02 3.31 0.04 5.62 -2 8 C-2.33 7.01 -2.66 6.02 -3 5 C-2.34 5 -1.68 5 -1 5 C-0.67 3.35 -0.34 1.7 0 0 Z " fill="#FCF5DF" transform="translate(332,320)"/>
<path d="M0 0 C0.66 0 1.32 0 2 0 C0.50902342 3.7952131 -1.75700849 5.61042731 -5 8 C-5.66 7.67 -6.32 7.34 -7 7 C-5.37660195 5.29115995 -3.70680947 3.62553283 -2 2 C-1.34 2 -0.68 2 0 2 C0 1.34 0 0.68 0 0 Z " fill="#F9F1D5" transform="translate(270,415)"/>
<path d="M0 0 C1.32 0.33 2.64 0.66 4 1 C4.33 3.64 4.66 6.28 5 9 C2.38952199 7.694761 2.31933577 6.64173426 1.375 3.9375 C1.11460938 3.20402344 0.85421875 2.47054688 0.5859375 1.71484375 C0.39257812 1.14894531 0.19921875 0.58304687 0 0 Z " fill="#D8C182" transform="translate(96,399)"/>
<path d="M0 0 C4.76058041 5.52841596 4.76058041 5.52841596 5 9 C4.34 9.66 3.68 10.32 3 11 C0 4.5 0 4.5 0 0 Z " fill="#DBC582" transform="translate(369,358)"/>
<path d="M0 0 C1.32 0.66 2.64 1.32 4 2 C3.67 4.31 3.34 6.62 3 9 C2.67 9 2.34 9 2 9 C2 7.35 2 5.7 2 4 C1.01 4.33 0.02 4.66 -1 5 C-0.67 3.35 -0.34 1.7 0 0 Z " fill="#FAF1D3" transform="translate(359,415)"/>
<path d="M0 0 C0.99 0 1.98 0 3 0 C2.34 1.98 1.68 3.96 1 6 C0.01 6 -0.98 6 -2 6 C-1.34 4.02 -0.68 2.04 0 0 Z " fill="#232323" transform="translate(415,407)"/>
<path d="M0 0 C2.52349243 3.12432397 4.27256146 6.38060496 6 10 C2.83884224 8.63016497 2.0072908 8.0109362 0 5 C-0.125 2.3125 -0.125 2.3125 0 0 Z " fill="#FCF3D6" transform="translate(96,400)"/>
<path d="M0 0 C0.99 0 1.98 0 3 0 C2.67 2.97 2.34 5.94 2 9 C-0.29013653 5.5647952 -0.17842973 4.014669 0 0 Z " fill="#292929" transform="translate(675,394)"/>
<path d="M0 0 C0.66 0.33 1.32 0.66 2 1 C0.68 4.3 -0.64 7.6 -2 11 C-2.33 11 -2.66 11 -3 11 C-3.36923077 4.6 -3.36923077 4.6 -1.5 1.5625 C-1.005 1.046875 -0.51 0.53125 0 0 Z " fill="#FEF9E1" transform="translate(98,376)"/>
<path d="M0 0 C0.33 0.99 0.66 1.98 1 3 C-0.4375 5.1875 -0.4375 5.1875 -2 7 C-2.66 5.68 -3.32 4.36 -4 3 C-2.68 2.01 -1.36 1.02 0 0 Z " fill="#DFC68F" transform="translate(355,350)"/>
<path d="M0 0 C0.66 0.33 1.32 0.66 2 1 C1.34 2.65 0.68 4.3 0 6 C-1.32 5.34 -2.64 4.68 -4 4 C-2.68 3.34 -1.36 2.68 0 2 C0 1.34 0 0.68 0 0 Z " fill="#DCBE6B" transform="translate(235,443)"/>
<path d="M0 0 C-1.28965176 1.37562854 -2.62689293 2.70766393 -4 4 C-4.66 4 -5.32 4 -6 4 C-6.33 3.01 -6.66 2.02 -7 1 C-4.53721199 -0.231394 -2.7204945 -0.07159196 0 0 Z " fill="#D5BB7D" transform="translate(153,411)"/>
<path d="M0 0 C0.33 1.32 0.66 2.64 1 4 C1.99 4 2.98 4 4 4 C2.74458443 6.51083114 1.49936512 6.87125446 -1 8 C-0.67 5.36 -0.34 2.72 0 0 Z " fill="#2E2E2E" transform="translate(458,401)"/>
<path d="M0 0 C0.66 0.99 1.32 1.98 2 3 C1.67 3.66 1.34 4.32 1 5 C1.66 5 2.32 5 3 5 C3 5.66 3 6.32 3 7 C1.68 7.33 0.36 7.66 -1 8 C-1.125 2.25 -1.125 2.25 0 0 Z " fill="#3B3B3B" transform="translate(673,367)"/>
<path d="M0 0 C0.99 0 1.98 0 3 0 C1.95125002 2.62187494 1.35068687 3.79371361 -1.125 5.25 C-1.74375 5.4975 -2.3625 5.745 -3 6 C-2.67 4.68 -2.34 3.36 -2 2 C-1.34 2 -0.68 2 0 2 C0 1.34 0 0.68 0 0 Z " fill="#DBC483" transform="translate(317,367)"/>
<path d="M0 0 C0.99 0.33 1.98 0.66 3 1 C-0.465 3.97 -0.465 3.97 -4 7 C-3.67 5.68 -3.34 4.36 -3 3 C-2.01 2.67 -1.02 2.34 0 2 C0 1.34 0 0.68 0 0 Z " fill="#FCF4E1" transform="translate(336,363)"/>
</svg>
